<svg id="Layer_1" data-name="Layer 1" xmlns="http://www.w3.org/2000/svg" viewBox="0 0 844.35 212.69"><defs><style>.cls-1,.cls-2{fill:#fff;}.cls-1{fill-rule:evenodd;}</style></defs><title>EXCLUSIVE_HOTELS__LOGO_TMH_WHITE_Responsive</title><path class="cls-1" d="M115.2,227.77l-.88-1.23C92.46,195.79,58.62,213,60.59,159l.74-11.59-.51.1a20.55,20.55,0,0,1-2.32.14c-5.27-.38-10.43-5.1-11.64-11.36l-.23-2.47c-.81.54-1.55,3-.83,6.18a9.56,9.56,0,0,0,3.64,4.95l2,1.28-2.22.71a11.51,11.51,0,0,1-3.93.52,9.71,9.71,0,0,1-3.53-.9c-4.68-2-7.5-6.53-7.5-13.37a10.79,10.79,0,0,1,.32-2.51l1-2.7L35,127.7c-1.69-.42-5.58.84-7.95,4.68a9.6,9.6,0,0,0-1.21,3.3,20.26,20.26,0,0,1,.17-9.22c1.33-6.44,6.67-10.93,9.64-11.66a4.92,4.92,0,0,1,2.17.05,3.46,3.46,0,0,1,0-1.56,4.82,4.82,0,0,0-5.12.64,21.56,21.56,0,0,1,4.15-5.33l-1.28.42c-2.79,1.32-5.21,3-6.16,5.89-.44-1.31.14-4.68.86-6.49a27.17,27.17,0,0,1,6.2-9.1,19.91,19.91,0,0,1,2.86-2.19l1.77-1-.83-.37c-3.79-1.34-7.16-.26-10.34,3.14l-1.56,1.67A15.44,15.44,0,0,1,29,92.82a10.84,10.84,0,0,1,9.78-7.21,13.87,13.87,0,0,1,4.21.83l.21.11-1.54-2a14.77,14.77,0,0,1-2.31-7.45,9.4,9.4,0,0,1,9.56-9.69l1.1.17,1.14-.47,1-.24-1.4-1.28a22.23,22.23,0,0,0-3.41-2,10.17,10.17,0,0,1-2.58-.66A3.19,3.19,0,0,1,43,60a3.81,3.81,0,0,1,.82-2.19A6.5,6.5,0,0,1,46.47,56a9.62,9.62,0,0,1,3-6.05,6.33,6.33,0,0,1,.42-2.82c1.91-4.57,9.46-3.89,9.46-5.68a1.91,1.91,0,0,0-2-1.47,4.59,4.59,0,0,0-2,.35L54.07,41c-.21.13-.23.48-.39.55-.4.15-.37.81-.44,1.1-.18,0-.43-.43-.37-1.11.1-.87-.57,0-.69-3.13,0-1,.26-2.58,2-2.18l0,0a13.06,13.06,0,0,0,2.37.47c.67.1,1,0,1.16-.07L57,36.2c-3.32-1.88-6.77,1-9.14-2.72a7.08,7.08,0,0,1-.6-1.9l1.43,1.12a4.57,4.57,0,0,0,2.92.9c2.37-.09,4.13-.3,3.81-.89a4.9,4.9,0,0,1-3.6-1c-1.93-1.65-1.14-6.14-.75-5.84a4.44,4.44,0,0,0,4.32.79c1.69-.74,1.3-1.4,1.52-2.36a4.53,4.53,0,0,1,1.83-2.51,1.14,1.14,0,0,0,.39-.87c0-1.26,1.36-2.58,3-2.93a3.56,3.56,0,0,1,.72,0c-.62-.77-1.76-1.08-3.55-.8a8.08,8.08,0,0,1,2-1.52,5.47,5.47,0,0,1,4.82-.08,9.48,9.48,0,0,1,1,.67c.39.2.47-.28.91-.28a4.08,4.08,0,0,1,4.71,3.89c.47-.07.81.27.77.94.09-.35.32-.66.4-.52,1.2,2,3.4,1.94,5.65,1.68-1.08.88-1,2.19-3.3,3.58,1.22.71,2.56.2,3.91-.53.6.95.23,2.33-2.47,4.79A5.53,5.53,0,0,0,81.86,31l1.58-.2a3,3,0,0,1-.7,1.63,7.81,7.81,0,0,1-2.64,2,5.44,5.44,0,0,0,4.33,1.47,6.51,6.51,0,0,1-4.27,2.79,7.5,7.5,0,0,1,1.24,2.48,6.46,6.46,0,0,0,.85,1.35,3.91,3.91,0,0,0,1.91,1.64l1.21.23-.85.93a3.4,3.4,0,0,1-3.21,1.21c-.27,0-.61,0-.6.26A2.35,2.35,0,0,0,82.22,49l1,.56-.84.87a3.77,3.77,0,0,1-2,1,5.71,5.71,0,0,1-1.85,0L77.33,51l-.08.78.06.39.94.08c2.56.55,2.43,2.85,2.28,4.47l-.1,1,.33.25a2.72,2.72,0,0,1-.34,3.81l-.14.09a5,5,0,0,0,1.51.72,7.49,7.49,0,0,0,5.44-.85,36.46,36.46,0,0,1,6.18-3.19l.91-.3,1.18-2.16a21.46,21.46,0,0,1,7.26-6.55,20.55,20.55,0,0,1,7.33-2.36c6.85-.57,14.91,2.43,21.37,10.67l.48.64,2.68,0c2.29,0,2.17,3.42-.35,4.78l-.09.05h0l-1.8,7.38A14.22,14.22,0,0,1,136,73.85l-.3-2.79a43.67,43.67,0,0,0-1-4.43l-.36-1.69a31,31,0,0,1,5.12,3.84l.2-.95c.66-2.46,1.82-4.82,1.75-7.93l-.06-2.61,2.87,4.07,1.62,2.83A31.33,31.33,0,0,1,147.33,69l.19,1.26.6-.69c1.58-1.23,4.41-.74,7-5.39l.15-.29-.16,0-.5-.27a4.78,4.78,0,0,1-3.57,1.48c-1.8.09-4.7-.48-5.28-2.77a5.61,5.61,0,0,1,.15-2.34,3.77,3.77,0,0,1,1.49-1.69l.47-.25,0-.2a10.5,10.5,0,0,1,1.77-5.58l.08-.08v-.56a6.78,6.78,0,0,1,.5-2.7c1.74-4,7.38-3,7.38-5.26,0-.33-.43-1.27-1.84-1.35a3.76,3.76,0,0,0-1.85.37c-.52.21-1.25.49-1.43.94s-.39.28-.49.54a3.84,3.84,0,0,0,0,1.26c-.48-.07-.72-.59-.73-1.43a1.08,1.08,0,0,1-.39-.34,5.08,5.08,0,0,1-.69-2.6c0-.69,0-1.78.86-2,1.1-.23,2.42.39,3.66.22.21,0,.33-.08,0-.4-1.23-.89-3.58-.17-5.88-.32-1.41-.1-3.29-.55-3.6-2.48-.06-.55,0-.78-.13-1.4l1.12,1.24a2.71,2.71,0,0,0,2.45.8,18.39,18.39,0,0,0,5-.77c-.73-.47-2,0-3.14-.25-1.45-.34-1.9-2-1.94-4.45.08-1.81.43-1.56,1.48-1.25a4.32,4.32,0,0,0,3.1-.41l1-.66a4.55,4.55,0,0,1,1.53-3.85l1.08-.87a2.92,2.92,0,0,1,3-3l1.07-.11c.15-.1.11-.2,0-.3a3.59,3.59,0,0,0-2.92-.71c.86-1.85,5.45-2.07,6.89-.88a3.51,3.51,0,0,1,.64.83l.13.32a4.82,4.82,0,0,1,1.13-.3c2.29-.25,4.85,1.14,4.82,3.58l-.12.57a2.45,2.45,0,0,1,1.13.33,8.51,8.51,0,0,0,5,1.47h2.11l-1.41,1.57a6.13,6.13,0,0,1-2.29,1.74,4.58,4.58,0,0,0,3.88-1.13,4.19,4.19,0,0,1-.43,2.29,6.34,6.34,0,0,1-2.78,3.29,4.48,4.48,0,0,0,3.49.56l1.46-.5a5.31,5.31,0,0,1-3.42,3.59,5.25,5.25,0,0,0,2.95,1.37H183c-.5,1.06-1.64,1.87-3.6,2.35.4,1.55,1.72,2.5,3.94,2.84l1.5-.09c-1.05,1.25-2.16,2.86-6.39,3l.59,1.24a5.05,5.05,0,0,0,4,2.33l1.76.29q-1.49,1.93-5.34,2.5a.32.32,0,0,0,.08.59l1.09.16a6.12,6.12,0,0,1,4,4.14l0,.08,1.06.25a3.26,3.26,0,0,1,2.38,3.08c0,2.79-2.79,3.92-4.63,3.77a3.4,3.4,0,0,1-1.9-.72l0,0,0,0-.45-.44-.16.33a2.51,2.51,0,0,1-1.22.76,10.15,10.15,0,0,1-2.71.28A6.9,6.9,0,0,1,173.08,64l-.27-.26-.33.48a3.58,3.58,0,0,1-1.72.93l-.73.09a10.32,10.32,0,0,1,3.29,3.07,6,6,0,0,0,1-3,33.37,33.37,0,0,0,2,7.1A30.22,30.22,0,0,1,177.83,78l.2,1.66c2.48-5.25,7.56-8.54,14.68-9.37a6.45,6.45,0,0,1,3,.56c-2,.55-4.67,3-6.33,5.42-1.12,1.44-3.15,5.78-4.91,7.36-3.12,2.78-5.11,2.76-6.71,5.82-.44.88-.36,1.33.38,1.22,4.17-.29,9.5-11.84,24-6.29a4.56,4.56,0,0,1,2,1.86c-3.53-.25-5.9,2.56-7.53,5.79a8.63,8.63,0,0,1-5.48,4.31c4.62,4.33,5.77,11.07,4.77,17-2.43-3.09-5.11-4.89-7.84-5.28,6.59,6.8,8.78,13.22,9.5,20l-2.38-2.76c-2.36-2-4.55-3.87-6.88-4.82l-1.2-.33.17.15c6,5.21,8.74,12.24,9.11,19.72a20.09,20.09,0,0,1-.16,4.17c-1.09-3.67-2.16-7.34-9.17-11.51-.07,8.52-2.86,13.21-6.92,16.1a11.18,11.18,0,0,1-4.8,1.3,9.41,9.41,0,0,1-4.79-1.21,3.58,3.58,0,0,0,2.11-.66c2.14-2,3.73-5.18,3.73-10.25l-.12-1.93c-.19-1-1-1-1.15,0a11.36,11.36,0,0,1-6.79,7.73l-.41.13.66,12.18c2.26,24.74-5.15,36.34-16.33,45.34-12.93,10.41-28.14,14.54-36.16,25.15ZM116,225l0,0a32.74,32.74,0,0,1,3.41-3.52l1.22-1-.73-.74L116,223.4Zm-1.52-.15,1.26-69-1.52,0-2.85,0-2.52,5.41-.18.4.14-.13a.92.92,0,0,1,.5-.15c.74,0,1.11.9,1,1.74s-.57,1.71-1.28,1.71c-.55,0-.91-.51-1-1.12l0-.55-.61,1.42.37.13a1.79,1.79,0,0,1,.55,1.57c-.07.85-.56,1.71-1.27,1.71a.93.93,0,0,1-.81-.55l0-.11-1.31,3c-2.6,6.22-5.13,12.74-7.57,19.47l0,.11.21-.19a1,1,0,0,1,.48-.13,1.29,1.29,0,0,1,1.12,1.47,1.37,1.37,0,0,1-1.21,1.45,1.14,1.14,0,0,1-1-.92l0-.31-3.08,8.76-2.22,6.69.47.21c1.87.93,3.77,1.92,5.67,3l.1.06a1,1,0,0,1,.37-.33,1,1,0,0,1,.47-.12,1.3,1.3,0,0,1,1.13,1.46l0,.17.4.24.22-1.21a.23.23,0,0,1,.45.05l0,1.62,2.53,1.76a52.91,52.91,0,0,1,10.89,10.75Zm1.58-3.26,6-5.56c2.19-2.15,4.31-4.26,6.33-6.36l3.75-3.93-3.86-4.32-2.84,3c-1.52,1.57-3.09,3.17-4.73,4.76l-4.45,4.17Zm5-1.42,2.36-1.86,2.69-1.78-1.9-1.94-.73.73-3.69,3.55Zm5.46-3.92,1.27-.84c1.52-.94,3.08-1.85,4.67-2.76l3.86-2.22-3-3.38-8.17,7.76Zm-10.29-3.62,2.44-2.25.83-.8-3.13-3.2Zm-13.54-.3a1.52,1.52,0,0,1,0-3c.69,0,1.16.73,1.17,1.49A1.35,1.35,0,0,1,102.65,212.29Zm0-.45c.34,0,.72-.4.72-1s-.39-1-.72-1-.73.41-.73,1S102.32,211.84,102.65,211.84ZM99.2,211a1.2,1.2,0,0,0-.17-.64.61.61,0,0,0-.48-.27.66.66,0,0,0-.44.24Zm7.18-.66a.23.23,0,0,1-.22-.3,63.8,63.8,0,0,0,2.77-10.82.23.23,0,0,1,.45,0,57.57,57.57,0,0,0,.83,10.79.22.22,0,0,1-.21.26Zm30.35-.18,5.42-3.12,1.1-.69-19.07-20.08-1.38,1.41L119.58,191Zm-30.06-.27,3.07,0-.37-2.5c-.11-.89-.2-1.79-.27-2.69l-.1-3.37-.16.83c-.2.93-.41,1.84-.64,2.73Zm-6.23-.23c-.76,0-1.23-.86-1.2-1.71s.54-1.7,1.29-1.7,1.22.86,1.2,1.72S101.18,209.64,100.43,209.64Zm0-.45c.38,0,.83-.49.85-1.27s-.39-1.25-.77-1.25-.82.5-.85,1.28S100.06,209.2,100.43,209.2Zm19.38,0,2.09-2C123,206.1,124,205,125,204l2.85-3-7.9-8.81-3.46,3.41-.19,10.05ZM90,206.32l1.9-5.82c4-11.44,8.56-22.84,13.46-34.32l4.46-10.31-5.9.09q-15.42.42-30.66,2l-1.14.13,1.2,4.89a222,222,0,0,0,13.95,37.7Zm53.69-.26L147,204c1.58-1.07,3.13-2.2,4.63-3.4l1.19-1.07-5.71-6.7-2.54,2.82c-1,1-1.93,2.07-2.91,3.1l-2.48,2.58Zm-54.86-.6-2.18-4.53c-1.48-3.15-2.87-6.31-4.2-9.44l-3.6-9-.15.08-4.28,0a.23.23,0,0,1-.22-.28c.52-1.82,1-3.61,1.31-5.44l.43-2.71-.4-1.18c-1-3.05-1.88-6.08-2.67-9.07l-1.41-5.74-9.75,1.14,0,1c-.33,12,1.18,20.26,4,26.31l.59,1.12.27-1.22a46.27,46.27,0,0,0,.6-5.06.22.22,0,0,1,.45,0,47.11,47.11,0,0,0,2.19,9.84.23.23,0,0,1-.21.3h-1l.25.38a29.15,29.15,0,0,0,6.09,5.94l.63.44.38-1.63c.29-1.66.52-3.34.66-5.13a.22.22,0,0,1,.44,0A51,51,0,0,0,78.16,199l.3,1.17,3.71,2.08c1.72.88,3.52,1.72,5.33,2.59Zm18.22-4.4c-.75,0-1.17-.79-1.1-1.61a1.6,1.6,0,0,1,1.37-1.56c.76,0,1.18.79,1.1,1.6A1.61,1.61,0,0,1,107,201.06ZM98.23,201a.23.23,0,0,1-.22-.29,48.08,48.08,0,0,0,1.68-10,.22.22,0,0,1,.44,0,48,48,0,0,0,2.22,10,.23.23,0,0,1-.21.3Zm13,0c-.72,0-1.17-.79-1.15-1.6s.49-1.58,1.21-1.58,1.17.8,1.15,1.59S111.93,201,111.22,201Zm-4.19-.36a1.15,1.15,0,0,0,.92-1.16c.08-.7-.28-1.12-.65-1.12s-.85.47-.92,1.17S106.67,200.61,107,200.61Zm-17.73-.06-.54-1.22a122.09,122.09,0,0,1-4.83-12.38l-.07-.21,1.1-4.4c.34-.15.53.12.66,1a33.51,33.51,0,0,0,2.12,8.87l-.15-3c0-.69,0-1.4,0-2.11v-1.91l-.23-.26c-.74-1.21-.48-3.86.91-5.79a.47.47,0,0,1,.78-.06,5.44,5.44,0,0,1,1,5.35l-.25.49.07,3.88c0,.66.06,1.34.12,2l.07.83.31-.7a28.09,28.09,0,0,0,1.84-7.51l.24-1.37c.33,0,.76-.13,1.06.74l1.35,3.75Zm9.21,0,3.32,0-.68-2.26c-.24-.83-.44-1.66-.63-2.49l-.54-3.3-.09.89c-.09.86-.2,1.71-.35,2.54Zm12.72,0c.36,0,.76-.44.77-1.15s-.37-1.13-.71-1.13-.75.44-.77,1.14S110.89,200.52,111.22,200.52Zm27-.21,4-4.23c4.22-4.61,8.17-9.29,12.08-13.92l5-5.82-4.34-5.28-7.58,9.17c-2.6,3.13-5.24,6.24-8,9.38l-5.53,6.1Zm-60.31-.47-.2-.75c-.19-.83-.37-1.66-.52-2.5l-.41-3.15-.08.76c-.11.87-.24,1.7-.39,2.54l-.42,1.82,1.3.88Zm11.27-.45L94,186.85l-.85-3.4c-.1-.38-.35-.45-.46,0-.64,4.85-1.61,7.74-2.74,9.81a.25.25,0,0,1-.48,0,72,72,0,0,1-.35-8c1.4-2.59-.38-3.72-.37-5.48-1.77,1.45-1.69,4.76-.72,5.64,0,2.85.11,5.74.24,8.13,0,.24-.23.26-.37,0-1.08-2-1.86-5.09-2.57-9.17-.06-.26-.13-.3-.23-.06L84.4,187A125.48,125.48,0,0,0,89.19,199.39Zm64.2-.4,1.93-1.69,2.53-2.7-6.74-7.92-1.68,2-2.46,2.8Zm-44.14-.82c-.76,0-1.2-.79-1.11-1.61a1.61,1.61,0,0,1,1.39-1.56c.76,0,1.19.8,1.11,1.61A1.6,1.6,0,0,1,109.24,198.18Zm0-.44c.41,0,.87-.47.94-1.17s-.29-1.11-.67-1.11a1.18,1.18,0,0,0-1,1.15C108.5,197.31,108.87,197.74,109.24,197.74Zm24.27-2.4,5.49-6.08,2.44-2.92-7.6-8.49-1.53,1.7c-1.33,1.41-2.67,2.81-4,4.21l-2.93,3Zm24.69-1.1.47-.51A36.74,36.74,0,0,0,164,185.2l.56-1.85L160,177.79l-1.83,2.36q-2.57,3.09-5.27,6.19l-.76.84ZM74.84,194c-.7,0-1.11-.75-1.07-1.49S74.31,191,75,191s1.11.75,1.07,1.49S75.52,194,74.84,194Zm3.82-.09c-.67,0-1.11-.74-1.12-1.47s.4-1.48,1.07-1.48,1.11.74,1.12,1.47S79.34,193.89,78.65,193.89Zm-3.82-.36c.34,0,.73-.41.78-1s-.32-1-.62-1-.74.41-.77,1S74.52,193.53,74.84,193.53Zm41.71-.08,8-8.33,7.59-7.71-8.69.09-.76.85-6,6.54Zm-37.9,0c.29,0,.65-.38.63-1s-.39-1-.68-1-.64.37-.64,1S78.35,193.44,78.65,193.44Zm28.13-.49a.22.22,0,0,1-.22-.28,52.64,52.64,0,0,0,2.16-10.44.23.23,0,0,1,.45,0A50.35,50.35,0,0,0,111,192.67a.22.22,0,0,1-.21.28Zm3.69-.45-.6-2.37a51.41,51.41,0,0,1-.89-5.2l-.05-.66-.11.77c-.14.9-.31,1.77-.49,2.64l-1.26,4.84Zm-8.41-.2c-.7,0-1.17-.74-1.17-1.49a1.2,1.2,0,1,1,1.17,1.49Zm-4.19-.22c.36,0,.75-.4.77-1s-.34-1-.68-1-.74.4-.76,1S97.53,192.08,97.86,192.08Zm4.19-.24c.35,0,.72-.39.72-1s-.38-1-.72-1-.72.4-.72,1S101.71,191.85,102.05,191.85Zm-25.42-.68c-.72,0-1.13-.84-1.09-1.63s.54-1.61,1.25-1.61,1.12.84,1.09,1.64S77.33,191.16,76.63,191.16Zm-8.39-.07,1,0-.68-2.22c-.23-.82-.44-1.64-.61-2.46l-.54-3.25-.08.88c-.1.84-.23,1.68-.38,2.51l-.4,1.74.58,1.12Zm8.39-.37c.33,0,.75-.46.79-1.19s-.33-1.17-.64-1.17-.76.45-.79,1.19S76.32,190.72,76.63,190.72Zm23.2-1.07c-.76,0-1.23-.86-1.2-1.72s.54-1.7,1.29-1.7,1.22.85,1.2,1.72S100.58,189.65,99.83,189.65Zm0-.45c.39,0,.83-.49.85-1.27s-.38-1.26-.76-1.26-.83.49-.85,1.27S99.46,189.2,99.83,189.2Zm42.11-3.35,2.42-2.83,1.84-2.2-11.37-12.6-.12,9.55Zm-25.22-1.72,2.9-3.16-2.79-3Zm-9.77-.15a1.18,1.18,0,0,1-1.06-1.36,1.34,1.34,0,0,1,1.19-1.34,1.18,1.18,0,0,1,1.06,1.36A1.32,1.32,0,0,1,106.95,184Zm4.19-.08c-.69,0-1.1-.76-1.06-1.5s.52-1.48,1.19-1.48,1.1.75,1.06,1.49S111.82,183.9,111.14,183.9Zm-4.19-.36a.91.91,0,0,0,.75-.92c0-.55-.3-.89-.62-.89a.91.91,0,0,0-.75.91C106.3,183.2,106.62,183.54,106.95,183.54Zm4.19-.09c.32,0,.72-.4.75-1s-.3-1-.62-1-.72.41-.75,1.05S110.83,183.44,111.14,183.44Zm-45.72-.82a1.17,1.17,0,0,1-1.1-1.3A1.32,1.32,0,0,1,65.54,180a1.17,1.17,0,0,1,1.1,1.31A1.31,1.31,0,0,1,65.41,182.62Zm99.69,0,.85-2.59c.26-.92.51-1.87.72-2.86l.35-1.87-6.77-8.47-7.72-9.25-2.05-.18-2.86,3.28-.3.35Zm-95.82-.06a1.26,1.26,0,0,1-1.14-1.29,1.17,1.17,0,0,1,1.08-1.3,1.26,1.26,0,0,1,1.15,1.29A1.17,1.17,0,0,1,69.28,182.55Zm-3.86-.36a.87.87,0,0,0,.78-.86.72.72,0,0,0-.66-.83.85.85,0,0,0-.77.86A.72.72,0,0,0,65.41,182.18Zm9.27-.07,3.7,0L76.24,175l-.31,1.9c-.17.92-.37,1.84-.59,2.75Zm-5.41,0a.74.74,0,0,0,.64-.85.82.82,0,0,0-.7-.85.73.73,0,0,0-.63.84A.82.82,0,0,0,69.28,182.11Zm39.64-.29c-.73,0-1.16-.85-1.12-1.69s.53-1.66,1.25-1.66,1.17.85,1.13,1.69S109.65,181.82,108.92,181.82Zm0-.44c.35,0,.79-.48.82-1.25s-.36-1.22-.68-1.22-.78.48-.81,1.24S108.6,181.37,108.92,181.37Zm-26.77-.44-.56-1.19a131.18,131.18,0,0,1-5.18-12.66l-.06-.2,1.31-4.27c.33-.16.53.11.67,1a36.47,36.47,0,0,0,2.19,9.18l-.2-6-.22-.25a5.89,5.89,0,0,1,.64-6.18.47.47,0,0,1,.78-.07A6.24,6.24,0,0,1,82.77,166l-.23.48.25,5.66.3-.69a30.34,30.34,0,0,0,1.82-7.75l.22-1.33c.34,0,.77-.2,1.07.44l1.36,4.35Zm37.81-.33,2.41-2.61.46-.51-5.67.06Zm26.56-.17,7.82-9.55-6.79-8.24-3.37,3.94c-1.3,1.48-2.61,2.93-3.92,4.39l-1.14,1.24ZM82,179.91l4.84-13.14-1-3.43c-.11-.38-.35-.46-.47,0a36.17,36.17,0,0,1-2.56,10.44.25.25,0,0,1-.47,0,65,65,0,0,1-.6-7.43A4.65,4.65,0,0,0,81,161c-1.58,1.82-1.31,4.56-.32,5.4,0,2.8.15,5.08.31,7.42,0,.23-.22.25-.36,0-1.11-2-2-5.67-2.72-9.68-.06-.24-.14-.29-.23-.05l-.86,3A133.89,133.89,0,0,0,82,179.91Zm-14.66,0a1.25,1.25,0,0,1-1.09-1.45A1.39,1.39,0,0,1,67.5,177a1.27,1.27,0,0,1,1.1,1.45A1.41,1.41,0,0,1,67.37,179.86Zm0-.45a1,1,0,0,0,.78-1c0-.6-.32-1-.65-1a1,1,0,0,0-.78,1C66.69,179,67,179.41,67.37,179.41ZM97,178.52l-.53-1.14a117.08,117.08,0,0,1-4.82-12.11l-.06-.2L93.19,161c.35-.16.55.1.65.93a32.13,32.13,0,0,0,1.86,8.78l0-2.8c0-.65,0-1.32,0-2l.07-1.79-.23-.24c-.86-1.23-.68-3.36,1-5a.51.51,0,0,1,.8-.07,4.05,4.05,0,0,1,1,4.65l-.27.46L98,167.5c0,.63,0,1.25,0,1.86l.05.78.35-.67a28.1,28.1,0,0,0,2.25-7.41l.3-1.28c.35,0,.72-.13,1,.68l1.31,3.9Zm-.17-1.18,5.46-11.77-.77-3.17c-.08-.35-.34-.42-.47,0-.83,4.55-1.95,7.25-3.2,9.19-.15.22-.47.18-.49,0a59.9,59.9,0,0,1-.09-7.54,3.39,3.39,0,0,0-.57-4.5c-1.73,1.74-1.55,3.83-.58,4.64-.15,2.67-.09,5.39,0,7.62,0,.23-.24.24-.38,0-1.06-1.88-1.79-5.45-2.39-9.27,0-.24-.13-.28-.24-.05l-1.05,2.87A116.22,116.22,0,0,0,96.86,177.33Zm20-.57,17.19-.08q.19-10.65-.05-20.44l-6-.24-10.75-.17Zm-9.79-.53a.22.22,0,0,1-.21-.29,53.52,53.52,0,0,0,2.07-10.09.22.22,0,0,1,.44,0,49.88,49.88,0,0,0,1.54,10.06.23.23,0,0,1-.21.28Zm.29-.44,3.07,0-.53-2.28c-.17-.85-.32-1.67-.46-2.51l-.31-3.18-.11.77q-.21,1.3-.46,2.55Zm59.79-1.17.1-.55a59.47,59.47,0,0,0,.63-6.79l0-.87-3.55,4.71Zm-102.4-.27a.23.23,0,0,1-.25-.28,44.13,44.13,0,0,0,1.58-9.46.23.23,0,0,1,.45,0,40.42,40.42,0,0,0,2.17,8.91.23.23,0,0,1-.17.29Zm.26-.49,3.18-.47-1.25-4.09c-.18-.74-.34-1.49-.49-2.27l-.11-.73L66,169.39c-.14.78-.29,1.57-.47,2.37Zm72.77-3.16,6.39-6.89,5.71-6.49-4.53-.4-4.21-.26-5.56,6.91-.74.87v3Zm25.76-.6,4.39-5.6h0q0-2.38-.15-5l0-.26-3.4-.4-5,6.1,1.25,1.53Zm-52.64-2.23c-.71,0-1.09-.89-1.08-1.73s.42-1.72,1.13-1.72,1.09.9,1.08,1.72S111.57,167.87,110.87,167.87Zm-3.84-.34c.32,0,.77-.49.83-1.3s-.3-1.26-.59-1.26l-.08,0-.72,1.65v.16C106.57,167.29,106.82,167.54,107,167.54Zm3.84-.1c.27,0,.67-.46.68-1.29s-.37-1.27-.64-1.27-.67.46-.68,1.28S110.61,167.43,110.87,167.43Zm-46.33-1A1.3,1.3,0,0,1,63.42,165c0-.71.41-1.42,1.08-1.42s1.11.69,1.11,1.41S65.21,166.45,64.54,166.45Zm3.81-.19a1.45,1.45,0,0,1-1.26-1.39,1.18,1.18,0,0,1,1-1.44,1.44,1.44,0,0,1,1.26,1.4A1.17,1.17,0,0,1,68.36,166.26ZM64.54,166c.29,0,.64-.36.63-1s-.37-1-.67-1-.64.36-.64,1S64.23,166,64.54,166Zm3.81-.2c.31,0,.64-.35.58-.95a1,1,0,0,0-.81-1c-.32,0-.64.35-.59,1A1,1,0,0,0,68.36,165.81ZM159,164.56l4.7-5.77-8-.94-2.53-.23,3.46,4.07Zm-50-.2c.34,0,.77-.48.84-1.3s-.3-1.25-.6-1.25-.78.49-.84,1.29S108.74,164.37,109,164.37ZM66.36,164a1.44,1.44,0,0,1-1.28-1.38c-.07-.74.33-1.44,1-1.44a1.48,1.48,0,0,1,1.29,1.4A1.19,1.19,0,0,1,66.36,164Zm68.45-.36,1.84-2.22,3.85-4.81-5.6-.34h-.14Zm-68.45-.09c.33,0,.65-.35.6-.94a1,1,0,0,0-.84-1c-.33,0-.65.36-.6,1A1,1,0,0,0,66.36,163.57Zm-4.59-5.85,2.87-.33.65-.84-3.09-5.49-.33,4.71Zm105.87,0-.73-13.35-1.37.18a20.52,20.52,0,0,1-3,.07l-.44,0,0,.22a1.07,1.07,0,0,1-1,.92c-.63,0-1.08-.71-1.1-1.43v0l-.23-.05a9.62,9.62,0,0,1-4.58-2.66,11.21,11.21,0,0,0,6.46-2.11l.28-.24-3.13,0a.18.18,0,0,1-.18-.25,43.46,43.46,0,0,0,1.9-9.14.2.2,0,0,1,.39,0,46.43,46.43,0,0,0,.62,4.7l1,4.19.48-.44a19.39,19.39,0,0,0,3.25-4.66l-.23-3.65c-.6-8.89-1.36-17.93-2.43-27.11h-.08l-1.7,5.45-.52,1.59.24.22a2.13,2.13,0,0,1,.38,1.07c0,.78-.35,1.57-1,1.57a.93.93,0,0,1-.48-.14l0,0-.31.89c-2.49,7-5.49,14.2-8.94,21.89v0l.27-.29a.86.86,0,0,1,.47-.13,1.31,1.31,0,0,1,1.12,1V136l0,0a2.59,2.59,0,0,1,.12.59c0,.8-.36,1.6-1.06,1.6a1,1,0,0,1-.47-.13l0,0h0a1.93,1.93,0,0,1-.75-1.52l0-.59-.91,2,.27-.09c.67,0,1.06.8,1,1.6s-.44,1.58-1.1,1.58c-.5,0-.84-.45-1-1l0-.37-.67,1.43c-1.84,4-3.79,8-5.85,12.23l-.29.58-.23-.6c-2.83-7.52-5.73-15.2-9.09-23.33l-.21-.51-3.56,0a.19.19,0,0,1-.17-.26,46.2,46.2,0,0,0,1.41-4.57l.09-.45h0c-2.32-5.4-4.87-11-7.75-16.89l-3.74-7.42-.82-.06-1,54.49,10.76.16q13.88.44,27.89,1.84Zm-102.3-.4,7.75-.92h.22l.58-.84a68.28,68.28,0,0,1,5.88-7.21l.81-.83-1.77-2.64-1.72-2.69Zm9.8-1.11,3.06-.27c1.7-.16,3.41-.3,5.11-.43l2.79-.17-.88-1c-1-1.24-2-2.52-3-3.87L81,148.68l-1.41,1.54a43.07,43.07,0,0,0-4.06,5.33Zm-9.4-.23,2.83-3.65-2.09-3.49L64.87,146l0,0a19.12,19.12,0,0,1-2,.95l-.38.15-.17,2.53Zm97-.51-3.31-.2a.19.19,0,0,1-.18-.25,38.43,38.43,0,0,0,1.8-8.29.19.19,0,0,1,.39,0,41.62,41.62,0,0,0,1.51,8.49A.2.2,0,0,1,162.77,155.45ZM87,155.26l6.54-.43,1.88-.07-4-4.52a150.36,150.36,0,0,1-11.28-15.49l-4.36-7.13-4,4.74,3.58,6.12a154.92,154.92,0,0,0,8.93,13.36Zm75.54-.19-.47-1.86a42.39,42.39,0,0,1-.77-4.24l-.07-.79-.09.69a37.66,37.66,0,0,1-.89,4.14l-.58,1.89Zm-66.45-.33,7.74-.31h.34l1.22-1.36,1.73-1.89.46-.48-4.05-4.88Zm10.27-.35,4.23-.07-2.06-2.48,0,0c-.46.5-.9,1-1.34,1.56Zm-10.62,0,7.23-8.68-9.27-11.14-7.51,8.17,1.21,1.65q2.77,3.69,5.75,7.13Zm15.49-.06,2.93,0,1.54,0,.09-4.84-17.5-21.54-4.63,5-.09.11L103.51,145h0Zm11.49-1.57-3.62,0a.19.19,0,0,1-.18-.26,44.37,44.37,0,0,0,2.33-9.14.19.19,0,0,1,.39,0,42.6,42.6,0,0,0,1.27,9.17A.19.19,0,0,1,122.75,152.75Zm-.21-.36-.45-2a45.6,45.6,0,0,1-.63-4.58l-.06-1-.15.89a43.94,43.94,0,0,1-1.17,4.57l-.71,2.11ZM68.9,151.9,76.52,142l-1.83-3-3-5.06-6,7.7,4.2-.33A13.56,13.56,0,0,1,66,145.37l-.68.4,1.62,2.79Zm74-.42,2.62-5.42c6.77-14.19,12.18-26.82,16-38.71l1.41-4.59q-9.64-.81-19.6-1.47-11.15-.72-22.63-1.28l3.14,6.13q8,16.05,14.4,32.71Zm31.56-2.53a11.22,11.22,0,0,0,4.11-.84c2.39-1,5-8.59,3.42-17.8l.17-.53c1.64,7.28.89,11.63-.19,15.55,2.69-3.23,4.72-8.3,4-17.13,0-2.6-4.92-4.13-6.76-5.57l-2.24-2-.11.3-.23-.09v-.64l-.73-.56,0,.9-.36-.06-.21-1.46-1.4-1.47a13,13,0,0,1,.83,2.53l.07.4-.34,0-.07-.28a16.27,16.27,0,0,0-4.23-7.64,34.21,34.21,0,0,1,3.49,7.51l.17.55-.23.09-.1-.3a18.21,18.21,0,0,0-5.43-8.08,31.31,31.31,0,0,1,4.75,8.68l0,.06-.34.22-.09-.29a21.75,21.75,0,0,0-6.34-9.11c.21.93,2.07,2.79,3.54,5.07a31.74,31.74,0,0,1,2.26,4.42l.11.28-.21.16-.34-.75a18.92,18.92,0,0,0-5.46-6.82c-.18.93,1.88,2.86,3.29,5.06.66,1,1.26,2.12,1.85,3.17l.35.62-.23.24-.42-.77a20.84,20.84,0,0,0-4.9-6.26,2.31,2.31,0,0,0,.5,1.35,13.31,13.31,0,0,1,3.53,9c-.1,7.18-5.7,13.2-11.93,15.62,5.4,2.4,10.52-1.58,14.37-7.4v.42a18.51,18.51,0,0,1-8.2,8.31c6.28,0,9.56-5.48,9.81-9.71s-1.39-8.14.84-11.3v.56c-2,3.81,2.45,9.32,2.45,14.41,0,5.25-1.82,9.07-4.14,11.2A10.09,10.09,0,0,0,174.49,148.94Zm-20.77,0-3.62,0a.19.19,0,0,1-.18-.24,51,51,0,0,0,1.83-10,.19.19,0,0,1,.39,0,53.12,53.12,0,0,0,1.78,10A.19.19,0,0,1,153.73,148.9Zm-37.89-.21.1-4.64-.84.79c-.43.41-.87.84-1.29,1.29l0,0Zm37.68-.15-.57-2.24c-.37-1.64-.68-3.29-.89-5l-.12-1-.09.92c-.22,1.67-.52,3.31-.91,5l-.61,2.33Zm9.73-.25c-.65,0-1.11-.71-1.14-1.45s.36-1.45,1-1.45,1.11.7,1.14,1.44S163.89,148.28,163.24,148.28ZM159,148a1.44,1.44,0,0,1-1.25-1.43c-.06-.73.36-1.47,1-1.47a1.45,1.45,0,0,1,1.24,1.45A1.22,1.22,0,0,1,159,148Zm4.21,0c.34,0,.7-.42.67-1.08s-.42-1.09-.78-1.09-.7.42-.67,1.08S162.88,147.92,163.24,147.92Zm-30.45-.06-3.62,0a.19.19,0,0,1-.18-.26,44.88,44.88,0,0,0,2.05-9.26.2.2,0,0,1,.39,0,44.09,44.09,0,0,0,1.54,9.29A.2.2,0,0,1,132.79,147.86Zm26.23-.26c.38,0,.72-.42.68-1.07s-.48-1.09-.88-1.09-.74.42-.68,1.07A1.08,1.08,0,0,0,159,147.61Zm-26.44-.11-.53-2.07c-.33-1.52-.58-3-.78-4.63l-.08-1-.13.9a43.62,43.62,0,0,1-1,4.62l-.65,2.14Zm-73.44-1a7.84,7.84,0,0,0,1.71-.19,15.37,15.37,0,0,1-8.65-6.11c0-.09.14-.11.22-.11,4.09,4.37,8.9,6.31,11.7,5.07l3.39-2.27a13.06,13.06,0,0,1-3.74-.45l-.52-.2,2.63-3.36c4.75-6,9.44-11.63,14.05-16.82l.3-.33-1.13,0c-1.76.07-3.53.17-5.31.29l-1.68.12-.74.83L70,124.65l1.06,0a8.56,8.56,0,0,1-1.86,1.37l-.62.3-1.06,1.25-3.8,4.87-.22,2.42.5.45a8.46,8.46,0,0,0,2.78,1.34A5.94,5.94,0,0,1,64,138l-.74,0-.37,4.1-.8-.3c-2.8-1.41-5.09-4.35-6.55-10-.18-.73.42-1,.77-.38,2.38,5.85,6.89,6.28,9.2,5.53-3.34-1.22-6.77-5.12-6.31-9.29-4-1.67-6.66-4.32-7.81-8.26,0-.66-2.13-.08-2.58.75-.56,3-.37,4.36,0,5.29a8.82,8.82,0,0,1,2.2-3.76c.08,0,.15.12.16.19A11.94,11.94,0,0,0,49,126.4a6.78,6.78,0,0,0,2.11,4.22c-.74.5-1.76.33-2.95-.22-.28-.14-.5,1.81-.5,3.08C47.7,140.8,53.59,146.51,59.15,146.53Zm-13.88-.19a11,11,0,0,0,3.56-.48c-3.87-2.5-5.25-7.7-5.25-13.39,0-.34.44-.33.44,0-.05,2.49.18,3.55.5,4.16.38-2.68,1.2-3.91,2.25-4.37a4.55,4.55,0,0,1,.42-2.62,16.76,16.76,0,0,1-6.09-5.31c-.32-.39-.53-.58-.79-.41a11.81,11.81,0,0,0-5,9.25c0,6.51,2.66,10.61,6.81,12.35a17.54,17.54,0,0,1-3.74-13.11c0-.18.25-.34.28,0,.21,5.81,1.65,9.93,4.64,13A2.62,2.62,0,0,0,45.27,146.33Zm115.87-1a.57.57,0,0,0,.46-.29l.12-.53-.56-.06-.73-.16.23.73A.67.67,0,0,0,161.13,145.33Zm-37.72-.09c-.68,0-1.11-.77-1.11-1.56s.44-1.55,1.11-1.55,1.11.77,1.11,1.55S124.1,145.25,123.42,145.25Zm-3.81-.09c-.67,0-1-.8-1-1.58s.53-1.54,1.18-1.54,1,.8,1,1.57S120.26,145.15,119.61,145.15Zm23.81-.09-4.79-13.76,1.56-3.69c.36-.84.77-.71,1.11-.71l.16,1.34a25.94,25.94,0,0,0,1.44,7.37l.28.69.11-.8c.09-.65.16-1.3.22-2l.27-3.81-.22-.47a5.4,5.4,0,0,1,1.31-5.25.46.46,0,0,1,.77.06c1.28,1.9,1.4,4.49.59,5.68L146,130l-.11,1.88c0,.7-.1,1.4-.17,2.08l-.3,2.93a33.92,33.92,0,0,0,2.59-8.7c.18-.87.39-1.14.72-1l.86,4.32-.08.2A125.57,125.57,0,0,1,144,143.88Zm-30.52,0,.7-.71,2.2-2.17L116,142l.16-9.14L112.95,136l-4.07,4.15Zm10.52-.18c.36,0,.75-.46.75-1.2s-.39-1.19-.75-1.19-.76.48-.76,1.19S123.06,144.88,123.42,144.88Zm-3.81-.1c.34,0,.76-.48.81-1.2s-.29-1.18-.61-1.18-.75.47-.81,1.21S119.29,144.79,119.61,144.79Zm24-.85a131.7,131.7,0,0,0,5.45-12.2l-.57-2.74c-.09-.23-.17-.2-.24.06-.92,4-1.88,7.05-3.07,9-.15.26-.39.24-.36,0,.26-2.34.58-5.19.67-8,1-.85,1.27-4.11-.42-5.53-.19.25-1.91,2.83-.66,5.37a72.67,72.67,0,0,1-.78,7.91.26.26,0,0,1-.5,0c-1-2-1.83-4.86-2.2-9.63-.08-.41-.33-.33-.46,0l-1,3.33Zm-21.92-1.57c-.68,0-1.12-.77-1.12-1.56s.44-1.56,1.12-1.56,1.14.77,1.14,1.56S122.36,142.37,121.67,142.37Zm0-.37c.38,0,.78-.48.78-1.2s-.4-1.2-.78-1.2-.77.48-.77,1.2S121.3,142,121.67,142Zm-36.26-.43,7.92-8.94q4.1-4.54,8.27-9l5.38-5.8-4.1-4.67-10.08,11L81.9,136.49l.16.24c.87,1.32,1.75,2.6,2.65,3.88ZM154,141.2c-.67,0-1.15-.79-1.19-1.59s.35-1.6,1-1.6,1.14.79,1.19,1.57S154.68,141.2,154,141.2Zm-20.59-.34a1.5,1.5,0,0,1-1.3-1.57,1.4,1.4,0,0,1,1.2-1.58,1.48,1.48,0,0,1,1.29,1.56A1.38,1.38,0,0,1,133.39,140.87Zm20.59,0c.35,0,.72-.47.68-1.22s-.46-1.24-.83-1.24-.73.48-.67,1.22S153.61,140.83,154,140.83Zm-3.82-.09c.34,0,.72-.48.73-1.23s-.36-1.23-.68-1.23-.72.48-.73,1.24S149.84,140.74,150.17,140.74Zm-16.78-.23c.45,0,.86-.49.84-1.21s-.48-1.22-.94-1.22-.86.49-.83,1.2S132.93,140.51,133.39,140.51Zm-4.14,0c-.67,0-1.08-.8-1.07-1.58s.41-1.58,1.07-1.58,1.07.8,1.07,1.58S129.9,140.47,129.25,140.47Zm-67.35-.14.19-2.14-1.28-.31a8.14,8.14,0,0,1-1.83-1l-.6-.51.18.36a10.84,10.84,0,0,0,1.88,2.52Zm133.68-.22c-.36-7.3-3-14.1-8.81-19.13,1.07,4,1.67,7.45,1.32,9.46l-1-1.19a21.92,21.92,0,0,1,0,2.28C191.22,133.37,193.62,136.58,195.59,140.11Zm-66.34,0c.33,0,.7-.47.71-1.22s-.38-1.22-.71-1.22-.71.48-.72,1.22S128.91,140.11,129.25,140.11Zm-20.69-.38,4-4.11,3.55-3.43.07-3.43L110,121.27,108,119l-8.67,9.43Zm53.68-.9-.56-2a45.31,45.31,0,0,1-.85-4.58l-.11-1-.11.88a41.92,41.92,0,0,1-.95,4.56l-.62,2.12Zm-10.16-.95c.36,0,.74-.47.7-1.23s-.48-1.24-.85-1.24-.74.47-.7,1.22S151.7,137.88,152.08,137.88Zm-20.78-.53c-.68,0-1.16-.78-1.19-1.57s.41-1.58,1.11-1.58,1.17.77,1.19,1.57S132,137.35,131.3,137.35Zm0-.37c.37,0,.76-.47.75-1.2s-.44-1.22-.84-1.22-.76.47-.74,1.2S130.92,137,131.3,137Zm-11.78,0a.19.19,0,0,1-.18-.26,38.28,38.28,0,0,0,2.14-8.72.2.2,0,0,1,.39,0,38.07,38.07,0,0,0,1.69,8.72.19.19,0,0,1-.19.25Zm3.63-.36-.56-1.92a38,38,0,0,1-.84-4.35l-.11-1-.14.93a38.53,38.53,0,0,1-1.07,4.36l-.67,2ZM81.62,136l7.23-8.2-4.57-6.23-2,.07-5.55,6.46,3.28,5.4Zm-19.13-2.42.1-1.1.54-4.88-2-.12-.82-.26a9.43,9.43,0,0,0,.23,3.16,8,8,0,0,0,.85,1.8Zm104.92-1.33c.78-.8,1.2-4.05,1.16-5l-1.66-1Zm-4.56-.39a1.36,1.36,0,0,1-1.2-1.38,1.22,1.22,0,0,1,1.07-1.42,1.37,1.37,0,0,1,1.2,1.39A1.22,1.22,0,0,1,162.85,131.9Zm-3.88-.08c-.66,0-1.07-.7-1-1.4A1.31,1.31,0,0,1,159,129c.66,0,1.07.69,1.05,1.4A1.32,1.32,0,0,1,159,131.82Zm-132.9,0c2.73-4.41,8.18-6.44,10.21-4.64a10.91,10.91,0,0,1,3.54-4,.32.32,0,0,0,.06-.41,19.21,19.21,0,0,1-2.21-6.13c-.1-.71-.79-.92-1.79-.68-2.52.62-7.58,4.75-8.81,10.8,1.67-3,3.32-3.33,6.26-6,.33-.3.76.08.13.41C30.66,123,26.36,127.77,26.08,131.78Zm136.78-.23c.38,0,.74-.42.7-1a1,1,0,0,0-.84-1c-.38,0-.74.42-.7,1A1,1,0,0,0,162.85,131.55Zm-99,0,1.64-2.12,2.14-2.63,0,0a14.14,14.14,0,0,1-2.6.59l-.7.08L63.87,131Zm95.16-.06c.37,0,.74-.42.76-1s-.33-1-.68-1-.74.42-.76,1S158.62,131.47,159,131.47Zm-35.3-2c-.67,0-1.07-.78-1.07-1.55s.41-1.55,1.07-1.55,1.07.78,1.07,1.55S124.33,129.49,123.67,129.49Zm-3.57,0c-.67,0-1.08-.79-1.08-1.55s.41-1.56,1.08-1.56,1.07.78,1.07,1.56S120.76,129.48,120.1,129.48ZM49,129.42c-4-7.92-1.19-15.75,4.42-19,.58-.29.58-.39.54-.94-.36-7.67,2.73-10.31,4-11.63a8.63,8.63,0,0,0-5.17,5.06c-1.36-2.63,0-7.18,2.33-9.37l1-.76h0v0h0l-.45-.61a17,17,0,0,0-2.19-2.59,8.66,8.66,0,0,1-1.62-3l-.49-.23A9.31,9.31,0,0,0,52.95,90l-.27,0a8.86,8.86,0,0,1-1.75-3.65l-.6-.13a9.45,9.45,0,0,0,1,2.85L51,89a4.53,4.53,0,0,1-1.17-2.63l-1.11-.54a4.61,4.61,0,0,0,1.19,2.87l-.25,0a6.17,6.17,0,0,1-2-3.48L47,84.62a6.77,6.77,0,0,0,.67,2.18l-.08.19a8.76,8.76,0,0,1-1.18-2.76l-.56-.55a9.87,9.87,0,0,0,.47,1.71l-.12.24c-1.83-3.78-2.47-7.46-.83-11l-.19-.55c-2.06,2.88-1.55,7.6-.12,10l-.14.23c-1.44-2.9-2.5-6.38-1.22-9.4l-.25-.59c-2.2,3.89-.25,7.94,1.27,10.72l-.07.28c-1.36-1.84-3.14-4.54-3.14-7.3,0-3.5,3-6.31,5.34-6.31a5.07,5.07,0,0,1,4.86,5c0,3.48-3.51,4-6.33,3.59A3.76,3.76,0,0,0,49,83.84a4.21,4.21,0,0,0,4.24-2.75c0-.13.22-.07.22.16A4.32,4.32,0,0,1,51.84,84c-.87.67-1.93.65-2.25,1,.22.43,1.29.63,2.78.41,1.75-.44,2.27-1.33,2.8-3.17.42.08-.07,2.25-.62,2.84-.78.9-2.11,1.33-1.88,1.53,1.61,2.61,2,3.06,2.63,3.89,1.75,2.08,3.52,3.57,4.2,3.59.19,0,.29-.11.28-.35V90.8c0-.47-.19-.51-.34-.35-.35.37-.66.47-.63.19.09-.52.22-.45.63-1.19.55-1.06,0-4.17-.88-7.6-.09-.27.19-.36.34.06.83,2.59.8,4.74,1.39,6a3.2,3.2,0,0,1,.85-1.43,1,1,0,0,0,.26-1.23L59.71,81a9.12,9.12,0,0,0-2-3.35c-.18-.2.14-.49.41-.23,1.74,2.76,2.17,2.13,2.59,3.34l1,2.68c.29.66.79.75,1.72.71,1.19,0,1.4-.85,3.44-.77.93.14,1.67-1,2.39-2.1-1.61,1.09-4.7.77-5.56.56-.28-.06-.39-.23,0-.29,4.68,0,7.23-1.89,7.62-5-4.17,3.31-8.31,2.89-11-3-1.89-4.32-6.39-6.46-8.67-5.51a11,11,0,0,1,4.91,4.45l-.56.06a8.67,8.67,0,0,0-7-4.12,8.29,8.29,0,0,0-8.45,8.57c0,4.17,2.9,9.65,8.5,13.52a.72.72,0,0,1,.34.41l-.1.28L49,91.16c-3.25-2.59-6.82-4.34-10.2-4.45a9.74,9.74,0,0,0-8.7,6.42,11.82,11.82,0,0,1,7.84-3.53c.6,0,.74.43.05.52-6,.87-9.31,5.28-8.87,8,3.94-4.21,8.36-5.24,13.32-2.65a23.55,23.55,0,0,1,6.12-1.78c.71,0,.69.62.16.68-2.66.28-8.35,2.8-11.47,5.73s-6.67,8.51-6.23,10.76a24.39,24.39,0,0,1,4.31-4.23c3-2.33,4.93-2.28,9.1-6.44.19-.22.37,0,.23.17-3.35,3.55-6.65,4.76-9.49,7.59,4-1.66,6.77-1.5,10.41-4.32.19-.16.4,0,.27.15a23.19,23.19,0,0,1-4.2,3.17c-.39,0-.74-.16-.94.13a13.35,13.35,0,0,0,.17,14,12.33,12.33,0,0,1,4.25-11c.15-.27.48-.06.28.18a15.78,15.78,0,0,0-3.8,9.68c0,3.89,1.6,5.18,3.06,6.28-1.06-1.86-.94-4.58-.55-6.59l.19.08c.14,4.33.59,6,1.11,7A7.58,7.58,0,0,0,49,129.42Zm83.64-.27v0l-.21-.53c-.41-1-.82-1.92-1.23-2.91l-.39-.91-.19.84c-.29,1-.61,2.09-1,3.17l-.14.37Zm-9,0c.33,0,.71-.46.71-1.19s-.38-1.19-.71-1.19-.7.46-.7,1.19S123.33,129.13,123.67,129.13Zm-3.57,0c.32,0,.7-.47.7-1.19s-.38-1.2-.7-1.2-.71.46-.71,1.2S119.77,129.12,120.1,129.12Zm40.79-.32c-.67,0-1.16-.75-1.2-1.54s.37-1.57,1.07-1.57,1.16.76,1.19,1.54S161.59,128.8,160.9,128.8Zm0-.36c.36,0,.74-.47.71-1.19s-.46-1.21-.83-1.21-.74.47-.71,1.2S160.51,128.44,160.9,128.44ZM116.22,128l.19-10.42-3.84-4.25-4.5-4.18-1.37,1.13q-1.48,1.16-3.1,2.29l-.34.22,7.16,8.15Zm-26.81-.78,3-3.41,1.42-1.56L85.25,112l-.28,4.1c-.05.87-.1,1.75-.13,2.62l-.11,2.16Zm-26.31-.67a15.7,15.7,0,0,0,5.29-1.39c-8.18-1.05-12-9.8-7.06-15.85.14-.24.5-.12.29.29-1.47,3.7.81,4.91,2.71,6.37a2,2,0,0,0,.15-1.11c-1.63-1-2.66-2.28-2.31-4.27,0-.19.29-.23.28-.07-.16,2.37.92,2.91,2.16,3.17l1.2-8.92c-4.8-2.2-10.7-.26-11.31,4.42a2,2,0,0,1-.72,1.35,6.53,6.53,0,0,0-1.81,2.3c-.54,6.43,2.14,9.65,4.92,12A16.2,16.2,0,0,1,55,115c0-.19.27-.2.29,0C55.53,123.34,58.39,126.75,63.11,126.54Zm58.68,0c-.69,0-1.13-.77-1.13-1.55s.44-1.56,1.13-1.56,1.13.77,1.13,1.56S122.47,126.5,121.79,126.5Zm64.82-.07a36.63,36.63,0,0,0-5-14.41c-3-4.92-6.93-8.44-11-9.11l-.22-.2c3.21-.11,6,1.61,8.95,4.76-1.64-6.51-9.88-9.6-14.63-5.64l.56,5.23c5.73-.71,9.94,1.5,12.59,7.34h-.41c-1-1.66-1.94-3.49-3.61-4.23a19.17,19.17,0,0,0,2.59,5.73l2.89,3.47-.31.06-3-3.18a20.93,20.93,0,0,1-3.64-5.91c.47,3.66,2.07,7.49,8.34,12C183.8,124.15,185.46,125.12,186.61,126.44Zm-18.14-.27,0-.87-1.53-.34,0,.34Zm-46.69,0c.37,0,.77-.48.77-1.19s-.4-1.19-.77-1.19-.77.48-.77,1.19S121.41,126.14,121.79,126.14Zm74-1.42c-2.5-5.17-2.83-7.82-10-13l.36-.16a45.94,45.94,0,0,1,7.28,6.53c-1.64-6.11-11.54-15.19-14.12-13.58a9.08,9.08,0,0,1,1.17,3.78A35.36,35.36,0,0,1,186,119C189.65,119.49,192.68,122,195.77,124.72Zm-126.38-.11,2-2.36-2.92.22-3.74.34v.07l.38.24a10.43,10.43,0,0,0,4,1.45Zm82.52-.84-5.09-12.58,1.47-4c.31-.59.74-.4,1.07-.41l.19,1.23a25.74,25.74,0,0,0,1.64,7.09l.28.63.38-5.19-.23-.43a5.47,5.47,0,0,1,1.41-5.27.48.48,0,0,1,.77.07,5,5,0,0,1,.51,5.66l-.24.23-.34,5.46a32,32,0,0,0,2.39-8.4c.16-.8.36-1,.7-.9l1.21,3.92-.07.18a117.68,117.68,0,0,1-5.47,11.6Zm10.54-.32-3.62,0a.19.19,0,0,1-.18-.25,45.77,45.77,0,0,0,1.85-9.4.2.2,0,0,1,.39,0,46.89,46.89,0,0,0,1.75,9.43A.19.19,0,0,1,162.46,123.44Zm-.21-.37-.57-2.09a47.7,47.7,0,0,1-.88-4.71l-.11-1-.1.9a47.13,47.13,0,0,1-.92,4.68l-.61,2.18Zm-10.2-.25a122,122,0,0,0,5.57-11.73l-.8-2.74c-.1-.22-.18-.18-.24,0-.83,3.67-1.79,7.08-2.94,8.87-.15.22-.39.22-.36,0,.2-2.14.43-4.23.47-6.79,1-.78,1.34-3.29-.19-5-1.25,1-1.81,3.5-.89,4.81a52.21,52.21,0,0,1-.77,6.8.26.26,0,0,1-.49,0,30.72,30.72,0,0,1-2.3-9.56c-.09-.38-.35-.3-.46,0l-1.13,3.14Zm-17.59-.45-5.09-12.58,1.53-3.73c.35-.78.68-.66,1-.66l.18,1.23a25,25,0,0,0,1.64,7.09l.28.63.1-.74c.06-.58.12-1.17.17-1.78l.18-3.48-.23-.43a4.08,4.08,0,0,1,1.31-4.45.5.5,0,0,1,.78.06,3.83,3.83,0,0,1,.6,4.84l-.23.23-.07,1.71c0,.65-.07,1.28-.12,1.9l-.24,2.68a32.25,32.25,0,0,0,2.4-8.41c.16-.81.36-1,.69-.9l1.21,3.92-.07.18a118.38,118.38,0,0,1-5.48,11.6Zm-69.64-.26,6.28-.55q4-.31,8-.47l5-.16.24-4.9c.22-3.94.52-7.9,1-11.94l.46-3.57-1.08,0-5.8.43-.69.68-1.78,1.37.16-.11.51-.37.1.13a1.22,1.22,0,0,1,.08.17l0,.12.42-.13c.86-.14,1.75.37,1.63,1.31l-.07.19h.11l.28.12a2.64,2.64,0,0,0,1.76.48c.32,0,.43.37.2.62l-.63.56h.07a6.08,6.08,0,0,0,.62-.2l.07,0s.88-.06.22.88a9.5,9.5,0,0,1-.63.77l-.34.28.05,0A1.72,1.72,0,0,0,82,108c.34-.08.53.31.29.59a3.79,3.79,0,0,1-.7.6l-.34.16.26.18a2.91,2.91,0,0,0,.66.17c.3,0,.35.46.08.67a2.57,2.57,0,0,1-.71.38l-.07,0,.29.45a1.39,1.39,0,0,0,1,.33c.33,0,.42.4.17.64A3.14,3.14,0,0,1,81,113h-.1l.08.34a1.43,1.43,0,0,0,1.29.86c.33.05.35.52,0,.71a3.41,3.41,0,0,1-.72.31l-.75.14v.25a.47.47,0,0,1-.32.43,1.84,1.84,0,0,0-.62.29l-.06,0-.05.09a1.3,1.3,0,0,0-.18.26.39.39,0,0,1-.57.17,1.87,1.87,0,0,0-.39-.23l-.23,0,.5,1,.57-.19c.74-.11,1.52.19,1.43,1a1.57,1.57,0,0,1-1.35,1.39.84.84,0,0,1-.52-.21s0,0,0,0l-.23-.26-.39.38a1.68,1.68,0,0,1-1,.3.91.91,0,0,1-.59-.23l0,0,0-.06-.16.14-.22.1a3.15,3.15,0,0,1-.84.12,1.89,1.89,0,0,1-1.16-.42l-.12-.16v.05a1,1,0,0,1-.18.24,1.72,1.72,0,0,1-1.16.41,2,2,0,0,1-1.11-.25l-.23-.16-.26-.2-.05.15,0,.05a1.7,1.7,0,0,1-1.21.54h-.42a1.2,1.2,0,0,1-1.06-.67l-.11-.75h0l.12-.43a1.62,1.62,0,0,1,.55-.58l.06,0-.06-.23a4.84,4.84,0,0,1,.9-2.16l.07-.08,0-.14c.32-2.68,3.09-2.4,3.18-3.14,0-.12-.07-.39-.57-.4s-.82.36-1.26.51h0l-.23,0H71a.23.23,0,0,1-.15-.11,1.23,1.23,0,0,1-.2-.86,1.24,1.24,0,0,1,.35-.8l.15-.06-.5,0a1.58,1.58,0,0,1-1.73-.73,1.53,1.53,0,0,1,.1-1.15c.13-.1.36.49.5.63a.92.92,0,0,0,.76.22l.78-.12H71a.8.8,0,0,1-.29-.12l0,0a.6.6,0,0,1-.18-.57l.1-.18-.07,0a.44.44,0,0,1-.11-.23v-.32l0-.25c.1-.3.3-.62.69-.51a1.58,1.58,0,0,0,1.15-.2l.61-.39,0-.32a2.2,2.2,0,0,1,.85-1.33l.11-.08v-.18l-.76.28a12.53,12.53,0,0,1-3.95.6c-.56,0-1.06,0-1.5-.06l-.92-.15-.05.3c-.5,4.33-1,8.62-1.49,12.89Zm-1.07,0,.39-3.49-1.91,2.06a8.36,8.36,0,0,0,1.21,1.21Zm30.46-.23,7.29-8-1.37.81a53.31,53.31,0,0,1-6,2.91l-.92.38-.48-.88a21.67,21.67,0,0,1-1.7-4l-.41-1.55-2.78,2.73Zm40.51-.65a119.43,119.43,0,0,0,5.45-11.53l-.81-2.75c-.1-.21-.17-.17-.23.05-.83,3.67-1.79,7.07-3,8.87-.14.23-.38.22-.36,0,.2-2.14.45-4.74.5-7.29,1-.79,1.3-2.79-.22-4.46a3.35,3.35,0,0,0-.86,4.31,60.2,60.2,0,0,1-.62,7.22.25.25,0,0,1-.47,0c-1.07-1.86-2-4.44-2.42-8.8-.1-.37-.34-.3-.46,0l-1,3Zm-12.07-.63-3.4,0a.2.2,0,0,1-.18-.25,48.66,48.66,0,0,0,1.69-9.4.19.19,0,0,1,.39,0,49.57,49.57,0,0,0,1.7,9.43A.2.2,0,0,1,122.63,120.61Zm-.22-.36-.54-2.1c-.35-1.53-.63-3.08-.85-4.7l-.1-.91-.09.82A45.12,45.12,0,0,1,120,118l-.57,2.18Zm-61.17-.57,2.6-2.7-.43-.09L61,119.22Zm8.44-.12a1.48,1.48,0,0,0,1.08-.37c.23-.42-.67-1.63-1.39-1.3a1.11,1.11,0,0,0-.71.83C68.56,119.31,69.11,119.55,69.68,119.55Zm3.1-.13a1.4,1.4,0,0,0,.87-.28c.4-.38-.44-1.39-1.54-1.34-.37,0-1.05.2-1.1.57s.5.63.83.85A1.83,1.83,0,0,0,72.78,119.42Zm2.62-.14c.5,0,1.13-.09,1-.49-.43-1.62-2.28-1.27-2.37-.54C74,118.67,74.73,119.31,75.4,119.28Zm-6.17,0-.14-.45h.07l.27.45Zm.4,0-.2-.65.08,0,.36.63Zm2.95,0a3.11,3.11,0,0,1-.35-.75l.07,0a3.93,3.93,0,0,0,.47.74Zm4.75,0a1.15,1.15,0,0,0,1.18-.92c.13-1.13-2.15-.8-2.22-.13,0,.23.34.51.65.9A.62.62,0,0,0,77.33,119.23Zm-5,0-.18,0a.77.77,0,0,1-.32-.62l.05,0A1.11,1.11,0,0,0,72.31,119.19Zm-2.19,0-.4-.79.08,0,.53.77Zm5-.05a1.72,1.72,0,0,1-.45-.7h.06a1.57,1.57,0,0,0,.41.54Zm-2.1,0-.3-.63h.05l.39.62Zm2.38-.06a4.13,4.13,0,0,1-.37-.75l.08,0a3.81,3.81,0,0,0,.5.73Zm1.83,0a3.53,3.53,0,0,1-.35-.75l.08,0a3,3,0,0,0,.48.74Zm2.26,0a1,1,0,0,0,1-.76c.11-.93-1.79-.66-1.86-.11,0,.21.29.42.54.76A.56.56,0,0,0,79.48,119ZM73.33,119l-.24-.5h0l.33.5Zm-2.89,0-.12-.29.07,0,.18.28Zm7.24,0-.32-.68.07,0,.42.67Zm-1.8,0-.4-.63.06,0,.5.63Zm3.51,0a4.1,4.1,0,0,1-.29-.62h.06a3.37,3.37,0,0,0,.41.62Zm.39-.11-.27-.56h.05l.36.56Zm-1.67-.06-.23-.55,0,0,.34.44Zm2-.1-.19-.46h0l.27.37Zm-9.52-.54a2.21,2.21,0,0,1,3.12-.08,2.28,2.28,0,0,1,2.13-.7l.88-.7.09,0-.53.51c-.22.18-.11.34.12.34a1.37,1.37,0,0,0,.66-1.4,3.86,3.86,0,0,1-2.47.56c-.08-.06,0-.12.12-.19a3.08,3.08,0,0,0,1.2-1.06,2.8,2.8,0,0,1-1.84.53c-.09,0-.05-.11.06-.22l1-1.1a6,6,0,0,0-3,2.64H72a9.09,9.09,0,0,1,2.13-2.47,2.08,2.08,0,0,1-.8.14,4.86,4.86,0,0,1-2.48,1.35,3.48,3.48,0,0,1,.62-1.63c-1,.3-1.82,1.09-2.15,2.84a1,1,0,0,1,.65.14,3.8,3.8,0,0,1,.62-1.62l0,.11c-.35.56-.49,1.58-.29,1.77Zm7.92-.33-.7-1.34-1.06,1A2,2,0,0,1,78.53,117.76Zm37.9-.91.13-6.85-3.39,3.24Zm-22.65-.26,1-.41c21.49-9.41,25-28.69,37.2-28.69,5,0,10.29,3.54,10.86,11.32h-.33a13.14,13.14,0,0,0-4.31-8.33l-.29.07a21.22,21.22,0,0,1,3.41,9.06l2.91.09A13.87,13.87,0,0,0,137,86.92a10.57,10.57,0,0,0-3.75-1.14c-11.55-.93-15.72,7.86-23.63,16.52a46,46,0,0,1-12.84,10c-1.47.78-2.35,1-2.59,1.44A8.73,8.73,0,0,0,93.77,116.59Zm-18.88-.08a3.75,3.75,0,0,0,2.93-1.42l-.17,0H77.6l-.08.08a3.92,3.92,0,0,1-1.58.92L76,116a3.05,3.05,0,0,0,1.23-.86l.09-.12h0a3.11,3.11,0,0,1-.67-.32A5.1,5.1,0,0,1,74.9,116.51Zm4.31,0a1.36,1.36,0,0,1,.27-.38,2.4,2.4,0,0,1-1.12-1.25,4.21,4.21,0,0,1-1,1l0,.59A1.43,1.43,0,0,1,79.21,116.49Zm14.27-.3a7.71,7.71,0,0,1,.53-2.81,29.26,29.26,0,0,1,1.94-24.92l1.17-1.82-.69-1.36c-7,10.07-6.79,23.15-3.08,30.64ZM71,116a7.54,7.54,0,0,0,2.7-1.77,4.54,4.54,0,0,0,.49-.55v.1a6.51,6.51,0,0,1-.73,1,3.76,3.76,0,0,0,2.14-1.16c.15-.18-1.61.07-1.12-.3a3.29,3.29,0,0,0,1.31-1.83,1.48,1.48,0,0,1-1.43-.09,3.37,3.37,0,0,0,1.46-2.9,1.43,1.43,0,0,1-.83.22v0a1.29,1.29,0,0,0,.83-.6,3.69,3.69,0,0,1,.58-2.31c-2.75-.95-3.54,1.89-5.46,1.44-.13,0-.21,0-.25.39-.1.55.45.17.57,0l.07.05a1.1,1.1,0,0,1-.52.67c-.07.08-.06.17.06.3s.61.08,1,.11c.79,0,1.38.52,1.3,1.15s-.6.74-1.84.63c-.26-.05-.33.12-.37.51a.86.86,0,0,0,.15.63h0v0a1.14,1.14,0,0,1,.25-.42l0,.07a.89.89,0,0,0-.18.39l0,.05h0a3.11,3.11,0,0,1,1.38-.54c.63,0,.91.39.87.75-.15,1.25-2.89.69-3.18,3.15l.31-.2h0l0-.11a1.65,1.65,0,0,1,.51-.84V114a1.51,1.51,0,0,0-.34.63l0,.13.11,0,.19-.07,0,0,0-.08a1.55,1.55,0,0,1,.57-.79v.09a1.2,1.2,0,0,0-.37.6l0,.12h.05l.14,0a4.43,4.43,0,0,1,1.11-1.2v.08A5.43,5.43,0,0,0,71,116Zm8.63,0a1.93,1.93,0,0,1,.76-.38v-.35a1.43,1.43,0,0,1-1.12-.58,5.94,5.94,0,0,1-.58.24A1.47,1.47,0,0,0,79.64,116Zm-4.86-.42a3,3,0,0,0,1.65-.73l0-.09a4.29,4.29,0,0,1-1.16.52l.09-.13a5.26,5.26,0,0,0,1.2-.6,1.49,1.49,0,0,1-.15-.17l0,0-.06,0a2,2,0,0,1-.72.36l0-.09a2.07,2.07,0,0,0,.51-.34l.11-.12,0,0a2.27,2.27,0,0,1-.26-.78,7.3,7.3,0,0,1-1.45,2.18A1.73,1.73,0,0,0,74.78,115.55Zm87.76-.1c-.68,0-1.13-.72-1.12-1.48s.47-1.47,1.15-1.47A1.32,1.32,0,0,1,163.7,114C163.69,114.74,163.22,115.46,162.54,115.46Zm0-.37c.4,0,.8-.44.8-1.11s-.38-1.11-.76-1.11-.79.45-.8,1.11S162.15,115.09,162.54,115.09Zm-82-.18h.23a3.21,3.21,0,0,0,1.34-.4,1.76,1.76,0,0,1-1.68-1.69,3.07,3.07,0,0,1-.59.91l0,0,0,.06a1.51,1.51,0,0,0,.53.73l-.09,0a1.72,1.72,0,0,1-.61-.61l0-.07h0a2.82,2.82,0,0,1-.33.21A1.34,1.34,0,0,0,80.51,114.91Zm-2.61-.19a3.07,3.07,0,0,0,1.21-.31l-.1-.17c-.93.48-2.45.12-2.27-.92h.1c0,1.22,2.32,1.19,3.28-.45l-.19,0a3.09,3.09,0,0,1-.38.42c-1.24,1-2.25.5-2.34-.1l.09,0a.91.91,0,0,0,1,.54,2,2,0,0,0,1.5-.92h-.19c-.69.91-1.76.74-1.91.27l.09,0a1.1,1.1,0,0,0,1.7-.46,2.15,2.15,0,0,1-.68-1.47h.13c.1,1.69,2.49,2,3.71.8a1.61,1.61,0,0,1-1.69-1.09,4.11,4.11,0,0,0-.48,0,3,3,0,0,1,.21.73h-.08c-.33-1.05-.75-.75-1.2-1.3l.05-.06A2.28,2.28,0,0,0,82,110a2.29,2.29,0,0,1-1.37-.62,1.51,1.51,0,0,1-1.71-.28l.07-.07c.65.84,2.38,0,3-.73-.74.18-1.45-.44-1.75-.3a1.29,1.29,0,0,1-1.38-.27l.05-.06a1.68,1.68,0,0,0,2.15-.45c.45-.51.91-1.07.66-1a5.26,5.26,0,0,1-1.79.31,1.49,1.49,0,0,1-1.35-.35l.13-.09c.7.51,1.68.17,2.63-.83a3,3,0,0,1-2-.55c-.13-.12-.49,0-.45.05a8.09,8.09,0,0,1,1,.7l-.11,0c-.48-.38-1.16-.65-1.45-.23l-.05-.1c1.39-1.6-.08-2.4-1.06-1.94a1.2,1.2,0,0,1-.2.95h-.1a2.64,2.64,0,0,0-.16-1.34l0,0-.18.13-.16.11-.06,0-.25.16-.09,0,.1.13a.94.94,0,0,1,.19.41l-.08,0a1.38,1.38,0,0,0-.58-.32h0l-.27.16a10,10,0,0,1-1.07.52l-.11,0,0,.14a2,2,0,0,1,.89-.16l-.06.06c-1.21.19-1.87,1.2-1.78,1.76l.32-.16a1.6,1.6,0,0,1,.57-1l.07,0a1.42,1.42,0,0,0-.47.87l.34-.19c.39-.88,1.34-1.1,1.72-.33l.31,0a1.26,1.26,0,0,0-.39-.75l.05-.09a1.52,1.52,0,0,1,.67,1.06h.14a1.73,1.73,0,0,0,0-.88h.09a1.66,1.66,0,0,1,.17.64l.17-.11c0-.21.07-.38.09-.6h.09a1.12,1.12,0,0,0,0,.44l.26-.16.05.08a2.55,2.55,0,0,0-1.37,2.14c-.16,1.29.23,2.68-1.36,4.15,1.09.15,2.31-.68,3.3-1.83l0,.16a5.23,5.23,0,0,1-1.9,1.62,4.71,4.71,0,0,1-1.66,2.16c1.11.1,2.2-.64,3.2-2.11l0,.21a9.58,9.58,0,0,1-1.74,1.84A1.71,1.71,0,0,0,77.9,114.72Zm9.1-1.44,3.32-3.14L90,108.36c-.11-.84-.2-1.7-.24-2.57l0-2.11-3,3-1.07,1.08-.28,3,0,.44Zm-11.46-.33.17-.29a5.12,5.12,0,0,0,1.94-1.88l0,.17A5,5,0,0,1,75.54,112.95Zm47.32-.06c-.65,0-1.09-.8-1.14-1.59s.32-1.6,1-1.6,1.09.8,1.13,1.57S123.52,112.89,122.86,112.89Zm-3.59-.1c-.64,0-1-.82-1-1.59s.4-1.59,1-1.59,1,.82,1,1.6S119.91,112.79,119.27,112.79Zm-24.88-.09.08-.5A69.49,69.49,0,0,1,99.66,97l.26-.57h0a2.19,2.19,0,0,1-.75-1.54,9.69,9.69,0,0,1,.31-3.12l.06-.24h0L97.28,87l-1.42,2.26a28.73,28.73,0,0,0-2.56,19.84C93.64,110.44,94,111.58,94.39,112.7Zm.43,0,1.68-.83a45.67,45.67,0,0,0,12.7-9.91c6.09-6.67,10.11-13.7,17.29-16a18.64,18.64,0,0,1,6.4-.79c.93.07,1.67.4,1.45,0l-1.88-1.76a1.78,1.78,0,0,0-1.27-.31,19.53,19.53,0,0,0-3.34.46,27.29,27.29,0,0,0-4.21,1.33C115,88.38,109,96.76,101.19,97c-.9.06-.87-.4-1.14.17a71.66,71.66,0,0,0-5,14.28Zm28-.13c.31,0,.66-.47.62-1.24s-.45-1.24-.78-1.24-.67.46-.62,1.22S122.53,112.54,122.86,112.54Zm-3.59-.11c.3,0,.66-.47.68-1.24s-.34-1.22-.63-1.22-.67.46-.68,1.23S119,112.43,119.27,112.43Zm-7-.09,4.27-4,.14-8.07-1.42,1.66c-1.38,1.58-2.88,3.2-4.55,4.81l-2.32,2.12,3.35,3Zm48.6,0c.35,0,.73-.46.68-1.18a1.46,1.46,0,0,0-.3-.87l-.07-.07-.21.62-.48,1.34.08.07A.53.53,0,0,0,160.91,112.31Zm-88.23-1.57v0c1-.07,1-1.55.32-1.87l0-.07a1,1,0,0,1,.68,1.13A1,1,0,0,1,72.68,110.74Zm3.2,0A7.2,7.2,0,0,0,78,108.79l.09.1a7.1,7.1,0,0,1-1.89,1.78Zm119-.21.15-3.31c-3.67-4.64-7.23-7-10.68-6.64l-.11-.25c3.21-.71,6.9,1.73,10.72,4.91-1.9-7.29-5.36-11-10.38-7.7l-.36,0a5.82,5.82,0,0,1,3.69-2.41c-2.72-1.82-5.61-2.33-8.93.08l-.44-.11c3.94-3.49,8.09-2.37,12.32.41,3-2.25.5-4.61-2.33-3.87l.25-.41c2.85-.74,4.34.33,5,2.54A6.41,6.41,0,0,1,196,91.4c-.08-1,.81-1.9,1.39-2.89a10.8,10.8,0,0,0-7.26.84l-.48,0a13.33,13.33,0,0,1,8.85-2.3,8.48,8.48,0,0,1,3.4-1.84c-14.25-5.45-19,6.18-24.23,6.54-1.46.16-1.86-.37-1.61-1.33,1.68-5,4.85-4.65,7.88-7.35,1.77-1.57,3.38-5.41,4.79-7.25a11.44,11.44,0,0,0-5.67,4.11l-.35,0a24.12,24.12,0,0,1,6.81-5.9l3.28-2.81c-7.87.92-13,4.89-14.87,11.15-.08.63-.77.59-.75.06.27-2.44-.15-5.52-1.72-9.65-.07.6-.17,1.23-.3,1.85l-.12.58.46,1.09a18,18,0,0,1,1,5l-.19.17a14.38,14.38,0,0,0-1.5-5.16h0l0,.08c-.11.37-.22.72-.34,1.05l0,.12.49,1.15A28.11,28.11,0,0,1,176,84.16l-.18.2a22,22,0,0,0-1.12-4.91l-.61-1.21,0,.08a4.11,4.11,0,0,1-.27.45,18.57,18.57,0,0,1-1.12,15.9,11.3,11.3,0,0,1,3.37-.19l0,.38c-2.21-.05-3.68.23-4.2,1l-1.64,2-.11-.34.55-1.44c-1.62.37-3,1.64-4.06,3.61,5.5-1.84,9.19.72,12.4,4.43,1.19-1.61,4.07.08,7.15,2.17C189,106.26,192,108.31,194.92,110.5Zm-114.38-.17a1.19,1.19,0,0,1-.85-.41l.08-.07c.4.31.78.43,1.13.2l.14.16A1.38,1.38,0,0,1,80.53,110.33ZM72.67,110l.05-.15a1.5,1.5,0,0,0-.93-.35.91.91,0,0,1,1.13.24l0-.08c-.84-1.08-2.79.56-3.76-.45C70,110.56,71.44,109.12,72.67,110Zm48.39-.09c-.66,0-1.11-.79-1.15-1.58s.32-1.6,1-1.6,1.11.79,1.15,1.58S121.73,109.93,121.06,109.93Zm-22.73-.11-2.2-.41.21-.16,2.81,0Zm22.73-.25c.32,0,.68-.46.64-1.22s-.46-1.24-.79-1.24-.68.47-.64,1.22S120.72,109.57,121.06,109.57Zm-41.38-.47a.91.91,0,0,1-.6-.28l.07-.09a.8.8,0,0,0,1,.05l.09.18a1.33,1.33,0,0,1-.47.13Zm20.92-.78-3.54-.68.21-.16,4.51,0Zm-26.52-.14v-.11a1.33,1.33,0,0,0,.83-1l0,.31A1.19,1.19,0,0,1,74.08,108.18Zm-.86,0s0,0,0,0v-.7a.59.59,0,0,0-.24-.37c0-.08,0-.13.13-.1a1.66,1.66,0,0,0,.49,0c.42,0,.68-.56,1-.59l.73-.06,0,.06-.17,0c-.16,0-.74,0-.67.31a.83.83,0,0,1-.5,1.22.48.48,0,0,1-.4-.18c0-.06-.1-.07-.15,0l-.09.42A0,0,0,0,1,73.22,108.16Zm6.47-.51a.86.86,0,0,1-.64-.25l.08-.08a1,1,0,0,0,.81.1v.19l-.19,0Zm6-.66,1.08-1.08L89.7,103l.15-2.59v-.06l-3.41.17-.62,5Zm17.42-.39-4.36-.81.24-.18,5.15.1Zm-48.21-.51a11.52,11.52,0,0,1,4.38-3.46c3.36-1.51,5-.88,11.09-1.23.15,0,.17.3,0,.3-3.77.26-7.12.63-8.21,1.25,2.41-.1,2.75,1.2,7,1.2,7.25,0,9.92-5.63,14.68-9.58A23.31,23.31,0,0,1,88,92c.19-.09.38,0,.24.19a21.22,21.22,0,0,0-7.55,7.34h2.22a13.92,13.92,0,0,1,4-4.59c.13-.12.32,0,.21.13a10,10,0,0,0-2.86,4.35l1.39-.08a10.12,10.12,0,0,1,2.75-4.48c1.25-1.25,2.55-2,3.36-1.84A23.92,23.92,0,0,1,95,86,18.65,18.65,0,0,0,82.05,90a13.16,13.16,0,0,0-3.11,3.3,27.19,27.19,0,0,1-2.77,3.62c-.17.18-.56.08-.3-.23a10.51,10.51,0,0,0,2.85-4.34,27.13,27.13,0,0,1-8.38,2.72c-.38.09-.43-.23-.18-.26A12.16,12.16,0,0,0,75.26,93c-3.31-.44-6.12-2.59-9.63-2.61-1,0-2.87.08-3.34.6a6.87,6.87,0,0,0-.89,2.61,6.6,6.6,0,0,1,2.56,0c.15.14.12.36-.12.33a11.41,11.41,0,0,0-2.26-.08c-.8,0-.69.81-.85,1.79-.74-.13-1.2-.74-2.16-1-.57-.17-1.39.58-2.29,1.25l-.48.17c-2.36,1.68-2.94,2.9-2.68,3.93,2.52-3,4.67-3.56,6.79-3.42,2.52.16,5,1.37,8,1,.19,0,.27.23,0,.26a27,27,0,0,1-5.6,0C57.63,97.87,54.79,102.66,54.9,106.09ZM78,105.17l-.1-.23c.27-.23.82-.76.63-1.16l.07-.1C78.81,104.2,78.37,104.85,78,105.17Zm27.07-.33-4.57-.84.26-.19,5.16.07Zm-31.18-.46.27-.1v0h0l.52-.23.2-.09-.2.09c-.22.1-.43.19-.65.27l-.15.06Zm1.62-.79.08,0Zm.1,0,.26-.16-.27.16Zm.26-.16.08-.05.14-.08Zm.21-.13h0l.32-.2Zm30.72-.34-4.87-.93.28-.21,5.64.1Zm55.81-1.45a5.83,5.83,0,0,1,2-1,12.23,12.23,0,0,1,5.89-5.56l-1.84-3.63c-2.73,5.16-4.89,6.16-6.71,7.08l-.95.93-.39,0,1.31-1.48-.36-.13a2.78,2.78,0,0,0,.82-.9c.77-1.1.9-7.84-.23-10.6a17.8,17.8,0,0,1-3.79,6.39c1.36,1.9,2.95,2.92,2.67,3.56h-2.34c-2.59,0-3.92,2.1-8.52,3.34a14.91,14.91,0,0,1,1.63,1Zm-54-.41-4.87-1,.27-.21,5.59.27Zm32.15-1.48a22.28,22.28,0,0,0-4-8.73l-.4.14a28.19,28.19,0,0,1,3,8.55Zm-2-.06a19.51,19.51,0,0,0-3.77-8.09l-.31.13c1.44,2.64,2.68,5.28,2.85,7.93Zm-1.56-.06a18,18,0,0,0-3.67-7.34l-.27.14a21.25,21.25,0,0,1,2.9,7.16Zm-1.46,0a19,19,0,0,0-3.36-6.91l-.27.16a20,20,0,0,1,2.75,6.72Zm-1.24,0a17.8,17.8,0,0,0-3.05-6.17l-.23.15a17.19,17.19,0,0,1,2.37,6Zm-24.22,0-4.11-.94.28-.2,4.75.11Zm22.88,0A12.77,12.77,0,0,0,130.59,94l-.16.13a14.46,14.46,0,0,1,2.11,5.24Zm-1,0A13.49,13.49,0,0,0,129.39,94l-.16.13a14.72,14.72,0,0,1,2.38,5.21Zm-1,0A12.81,12.81,0,0,0,129,95.17l-.2.17a13.52,13.52,0,0,1,1.81,3.92Zm-1,0a10.19,10.19,0,0,0-2-3.69l-.11.22a8.71,8.71,0,0,1,1.55,3.48Zm-1.2,0a5.44,5.44,0,0,0-1.35-2.64l-.2.22a4.57,4.57,0,0,1,1,2.42Zm-1.34-.05a2.78,2.78,0,0,0-.86-1.68l-.18.19a2,2,0,0,1,.58,1.49Zm-1.16,0a2.74,2.74,0,0,0-.37-.84l-.18.18a.81.81,0,0,1,.16.66Zm-14.47-1.68L108.25,97l.26-.2,4.25-.35Zm42-.37.38-.16-1-.8-.51.28Zm9.86-.68,1.64-1.89c.63-.8.89-2.28.86-5.12a25.36,25.36,0,0,0-.64-5.86l.23-.3c1.17,2.84,1,6.05,1.11,9.2,1.38-2.26,2-5.81,1.83-10.54a4.66,4.66,0,0,1-5.11-4.26c0-.35.21-.25.27-.13a4.83,4.83,0,0,0,2.32,2.84c3.07,1.53,7.48-1.38,7.55-5-1.91,2.21-3.46,2.42-4.89,2.25l0-.31c4,.34,5.49-4.09,4.92-8.29-5.06,9.94-11.24,6.1-11.24,2.37,0-4.45,5.64-6.78,9.93-1.78l.36-.47a12.39,12.39,0,0,0-9.34-4.62c-3.3,0-5.54.64-6.59,5.17a12.84,12.84,0,0,1-.79,2.42l1.31,3.12-.11.41-1.66-3-2.22,4.1.79,2.49L157,76.66c.88,2.49-.45,5.49-2.25,8.6-.4,5.18-1.83,8.36-3.65,10.85a8.09,8.09,0,0,0,4.55-3.5,20.89,20.89,0,0,0,2.69-8.32l.32-.17A23,23,0,0,1,157.22,92a35.09,35.09,0,0,0,4-6.07c.71-1.3.34-4.39-1.56-7.15l.29-.39c2.35,2.64,3.58,8.09,3.75,10.6S163.85,93.81,163.75,96.38Zm-8.61,0,.42-.24-1.08-.73-.49.3ZM54.59,96.29a6.83,6.83,0,0,1,3.15-2c.16-.31-.09-.55-.8-.94C55.3,94.35,54.59,95.32,54.59,96.29Zm45.6-.13.53-3.22-.08-.05a2.71,2.71,0,0,1-.85-.91l-.05-.09-.28,1.48a6.25,6.25,0,0,0,0,1.46,2.36,2.36,0,0,0,.33,1A1,1,0,0,0,100.19,96.16Zm.85,0h.2a6.11,6.11,0,0,0,.89-.1c6.84-.83,12.61-8.22,20.65-11.71l.24-.09v-.16a1.39,1.39,0,0,0-.74-1.29l0,0-2.52,1.08c-5.18,2.51-9.3,5.89-14.1,7.91l-3,1.16a2.19,2.19,0,0,1-1.59.13h0l-.51,3A2.48,2.48,0,0,0,101,96.16Zm12.16-.27-3-.4.24-.18,3.53-.3Zm43.32-.15a6.57,6.57,0,0,1,2.12-.46h.9l-.17-.21a14.88,14.88,0,0,1-1.74-2l-.05-.07A19.8,19.8,0,0,1,155.47,95Zm-6.26-.24.26-.52a26.08,26.08,0,0,0-4.13-1.36l-.22.21A28.51,28.51,0,0,1,150.26,95.49Zm-35.81-1.23-2.31-.33.23-.18,2.78-.38Zm36.58,0,.33-.56a31.37,31.37,0,0,0-3.59-1l-.26.28C148.78,93.36,150,93.78,151,94.23Zm20.43,0a11.64,11.64,0,0,0,1.37-7.27,9.3,9.3,0,0,0-1.13-3l.15-.37a23.87,23.87,0,0,1,2.3,4.39,19.47,19.47,0,0,0-.95-8.34A6.55,6.55,0,0,1,169.65,82a17.25,17.25,0,0,1-.75,8.16C169.81,91.51,170.67,92.86,171.46,94.21ZM144,93c3.6-1,6.41-3.67,8.81-7.22a35.47,35.47,0,0,1-6.95,2.44v-.39c6.74-1.85,9.21-5.36,10.32-9.4a11.56,11.56,0,0,1-9,3.65,13.48,13.48,0,0,1-5.81,2l.1-.44c8.28-1.58,12.56-10,14.28-14a47.32,47.32,0,0,1-5.39,6.51l-.44-.11c7.77-8.33,6.59-10.55,7.12-13.91-3.31,8.2-7.87,6.9-8.84,8.59-.81,1.64.92,4.73-4,8.65l-.44-.14c4-3.16,3.92-8,1.34-14.79,0,2.72,0,5.71-.73,7.6l-.26-.21a26.2,26.2,0,0,0-.28-9.56,6.41,6.41,0,0,0-1.69-2.45c.16,6.57-4.07,9.43-1.06,16.22l-.28.13c-1.21-.91-1.66-3.23-1.56-6.56-1.13-1.08-2.34-2.17-3.69-3.25,1.79,6.52,1.84,10.89.49,13.54l-.38-.06a10.37,10.37,0,0,0,.58-4.58,16.36,16.36,0,0,0-7.6-5.46c4.13,4.05,5.7,9.13,5.12,13.33l1.75,1.95a8.15,8.15,0,0,1,5.23-3.57l0-.36.14.08,0,.67a5.81,5.81,0,0,0-4.51,3.69,11,11,0,0,1,2.88,1.55l0,0a1.24,1.24,0,0,1,.35-.23,4.56,4.56,0,0,1,2.53-.18l.13.3a5.08,5.08,0,0,0-2.26.23,1.05,1.05,0,0,0-.22.2l.07,0A13.7,13.7,0,0,1,144,93Zm8-.09a18.27,18.27,0,0,0,1.42-4.34l.18-1.3a17.21,17.21,0,0,1-4.11,4.41ZM61,92.72c-.06-1.44.89-2.49.65-3.46l-.95.53A5.33,5.33,0,0,0,61,92.72Zm40.78-.09a2,2,0,0,0,.57-.12l1.6-.58c6-2.08,10.94-6.67,17.79-9.47l.12-.06c-.65-1.3-.76-4.57-.8-7-.08-4.5.52-8.83,1-9,4.28.34,6.34-1.78,7-5.46l.16-1.38h-.49c-9.75.27-20.23,4.07-31.11,6.43A72.43,72.43,0,0,1,86,67.55l4.6,4.95c3.25-.21,6.39-.52,9.49-.88a18.47,18.47,0,0,1,1.25,4.81,42.54,42.54,0,0,1-8.32.22l.3.48.46.74c4,0,9-.24,9-.66a37.31,37.31,0,0,0-1.1-6.74c-.14-.58,0-.66.22,0a26.77,26.77,0,0,1,1.56,7.31c-.24.31-3.47.63-7.85.71H94.08l.45.73a90.64,90.64,0,0,1,6.15,11.89C100.93,91.67,100.91,92.64,101.75,92.63Zm13.94,0L114,92.22l.24-.18,2.12-.34ZM75.9,92.3c5.39,0,7.76-7.63,19.22-7a1.43,1.43,0,0,0,.78-.72A2.82,2.82,0,0,0,95,83.18c-1.52-1.17-8-2.24-13.46-1.08a5.11,5.11,0,0,0-1.47.71c-.21.16-.57,0-.38-.17,1.7-1.37,6.08-2.47,7.64-1.78-2-3-10.45.08-13.13.08a12.15,12.15,0,0,1-3-.3c-.2.87-1.14,1.57-1.53,2.42s1.24,1.3,5.08,1.3c.27,0,.31.3,0,.36-3.9.63-4.89-.67-7.11-.67S61.07,86.55,60,89.73a15.25,15.25,0,0,1,7.58-2.78c2.27,0,4.61,1.86,7.22,1.86h2c.16,0,.21.31,0,.27l-2,0c-2.44,0-5.71-2.18-9.22-.75C69.16,89.21,71.46,92.3,75.9,92.3ZM123.56,84l1.48-.48c4-1.28,7.53-.48,7-1.14a6.16,6.16,0,0,0-.88-1.22c-.27-.23-.4-.49-.86-.45A29.67,29.67,0,0,0,123,82.47l0,.08a2,2,0,0,1,.58,1.34ZM110.94,83a1.45,1.45,0,0,1-1.54-1.42A1.81,1.81,0,0,1,110.46,80l.07,0-.1-.74-.13-1-.11-1-1.25.23-.94.22v0a1.56,1.56,0,0,1-1.46,1.3A1.5,1.5,0,0,1,105,77.44a1.59,1.59,0,0,1,1.49-1.63,1.46,1.46,0,0,1,1.37.95l0,0,.85-.2,1.33-.25v-.18c0-.34-.06-.67-.07-1L110,73.69h0a1.53,1.53,0,0,1-1.53-1.49,1.77,1.77,0,0,1,1.71-1.68,1.55,1.55,0,0,1,1.71,1.5,1.7,1.7,0,0,1-1,1.51l-.12.06,0,1.55c0,.34,0,.66.07,1v.12l1.63-.24,1-.09v-.14a1.58,1.58,0,0,1,1.48-1.46,1.51,1.51,0,0,1,1.49,1.56,1.58,1.58,0,0,1-1.49,1.61,1.43,1.43,0,0,1-1.24-.67l0-.08-1.1.11-1.65.23v0c.07.66.15,1.33.24,2l.09.66h.09a1.44,1.44,0,0,1,1.54,1.41A1.89,1.89,0,0,1,111.11,83Zm11.77-.87,2.61-.89a30.31,30.31,0,0,1,4-.82.34.34,0,0,0,.32-.33l1-6.12a16.28,16.28,0,0,0-1.47-2.14l0-.06-3-.33.13-.31,2.12-.16-.12-.13a7.1,7.1,0,0,0-4.12-2v-.28a10.28,10.28,0,0,1,7.2,1.52L133.1,63c0-.19-.38-.22-.86-.22l-2.45,0,0,.06a7.6,7.6,0,0,1-7.18,4.62c-.71,1-1,7.72-.05,13.74Zm-27.88-.24L91.69,76.7c-.42-.53,2.41-2.11,5.14-3.58l-6.89.63-5.65-5.93c-.3-.31.2-.87.7-1.52a25.9,25.9,0,0,1,8.37-6.23l.34-.69a34.74,34.74,0,0,0-6,3.11c-3.89,2.22-8.93,1.13-10.24-2.45-1.41,1.45-.06,3.95,3,4.42.2.28,0,.48-.36.28-.91-.47-2.54-.28-3.06-1.51-.26.37-.41,1.73,1.2,4a2.23,2.23,0,0,0,2,.78,3.76,3.76,0,0,1,2.71.89c.08.23-.21.19-.49,0a8.25,8.25,0,0,0-3-.46,17.56,17.56,0,0,0-5.1.23c-1.59.4-3.89,1.29-4.28,2.37,8.27-1.65,8.34,3,13.78,2.59.42,0,.66.26.28.34-4.49.57-4.53-.9-7.91-1.8-3-.81-6,.3-9.49-.27.95,1.35,3.07,2.05,5.55,2.07l-.2.27c-4.57-.08-6.4-1.71-10.44-4.28,0,1.87.27,3.21,1.53,3.94C65.45,75.23,69,77,70.33,76l1.74-1.39,0,1.83c0,.44,3-.11,4.68-.57.17,0,.15.11,0,.2a15,15,0,0,1-4.6,1c-.18.09-.06.77-.31,1.59a6.65,6.65,0,0,1-.31.9c3.32,2,11.6-3.15,16.88,1.07A16.55,16.55,0,0,1,94.83,81.86Zm38.1-.05L133,80a15.22,15.22,0,0,0-.78-3.25l-.62-1.23-.69,4.08.36.19A4.86,4.86,0,0,1,132.54,81Zm-13.6-.27a1,1,0,1,1,1-1A1,1,0,0,1,119.33,81.53Zm29.18-.31,1,0a10.3,10.3,0,0,0,3.19-1.06l.84-.61-1-1.53A17.67,17.67,0,0,1,148.51,81.22ZM119.07,81a.57.57,0,0,0,.24,0,.81.81,0,0,0,.39-.34.58.58,0,1,0-1-.56.63.63,0,0,0,.14.88A.44.44,0,0,0,119.07,81Zm9.44-.73-5.36-.51.13-.28,5.39-.17Zm-80.66-.64A7.42,7.42,0,0,1,48,76.94l-.12-.1a8.49,8.49,0,0,0-.6,2.77Zm3.51,0C53.43,77,53,73.79,50.13,72.22v-.56c3.68,1.81,3.66,5.13,1.67,8Zm-4.71-.11a8,8,0,0,1,.61-3.76l-.13-.26A9.38,9.38,0,0,0,46,79.45Zm-1.21-.29a12.5,12.5,0,0,1,1.2-5L46.49,74A11.36,11.36,0,0,0,45,79Zm83.46-1L124,77.49l.13-.28,5-.18Zm-62-.47a3.79,3.79,0,0,0,2.61-1c-3.23-.26-5.44-1.21-6.92-2.65A8.14,8.14,0,0,0,66.88,77.72Zm52.08-.4a1,1,0,1,1,1-1A1,1,0,0,1,119,77.32Zm-.26-.51a.45.45,0,0,0,.24,0,.78.78,0,0,0,.39-.33.65.65,0,0,0-.13-.88.71.71,0,0,0-.71,1.19A.42.42,0,0,0,118.7,76.81ZM94.12,76.2a26.67,26.67,0,0,1,5.78-3l-.14-.48L97.92,73c-1.85,1.05-3.83,2.12-5.34,3.17Zm35.15-.11-4.8-.67.13-.28,4.9-.16ZM61.49,74.41l.2-.08A7.74,7.74,0,0,1,60.9,69c0-.48.83-.72,1.17,0,0,.34,1.22,1.07,2.5,1.72l3.9.34L69.6,70c-3.78-4.38-9.24-6.86-16.24-7.58A23.47,23.47,0,0,1,59.79,67c.16.21-.07.38-.23.24-4.19-3.2-8.2-5.29-11.79-4.47a17.53,17.53,0,0,1,6,4.31C57.92,67.74,59.92,70.82,61.49,74.41Zm100.92-.14c-2.27-2.67-1.8-5.73,1.45-7.48l0,.35a4.57,4.57,0,0,0-1.25,6.73Zm-32.76-.12-4.49-.9.13-.31,4.57.15Zm37.94,0,.29-.09-.24-.33a5,5,0,0,0-1.3-1.05l-.13-.07v0l-.05.24.3.17a5.38,5.38,0,0,1,.95.85Zm1.2-.45.1,0,.24-.13-.2-.3a6.44,6.44,0,0,0-2-1.77l-.33-.18,0,.13-.06.22.19.12a7.11,7.11,0,0,1,1.67,1.39Zm-49.94-.32a1,1,0,0,1-1-1,1,1,0,1,1,2.08,0A1,1,0,0,1,118.84,73.37Zm51-.28.26-.19.12-.1-.18-.25a8.09,8.09,0,0,0-2.54-2.23l-.42-.23-.17.31,0,.09.32.17a9,9,0,0,1,2.44,2.17Zm-51.25-.22a.78.78,0,0,0,.23,0,.74.74,0,0,0,.39-.34.64.64,0,0,0-.13-.89.65.65,0,0,0-.84.32.64.64,0,0,0,.13.89A.58.58,0,0,0,118.59,72.87Zm52.12-.51.11-.1.26-.27-.23-.32a8.47,8.47,0,0,0-2.66-2.34l-.4-.21-.18.19-.14.18.38.21A9.13,9.13,0,0,1,170.43,72Zm.8-.94.24-.35.05-.09-.16-.23A8.57,8.57,0,0,0,169,68.54l-.2-.09-.09,0a2.62,2.62,0,0,0-.28.15l0,0,.37.21a9,9,0,0,1,2.5,2.21Zm-52.27-2a1.16,1.16,0,1,1,0-2.31,1.16,1.16,0,1,1,0,2.31ZM70.8,69.24a10.88,10.88,0,0,1,3.08-1.33c-2.14-3.51-4.65-6.57-8.48-8a9.93,9.93,0,0,1,3.72,5.47.18.18,0,0,1-.36.07c-.41-1.38-1.54-3.13-4.13-5.62l-2.1-.33a8.55,8.55,0,0,1,2.35,5.29A21.68,21.68,0,0,1,70.8,69.24ZM119,68.82a.67.67,0,0,0,.25,0,.88.88,0,0,0,.44-.38.64.64,0,1,0-.93.35A.61.61,0,0,0,119,68.82Zm11.88-.32-3.61-.94.18-.2,3.7,0Zm-56-.81L77,67.44h.36l-.81-1.37a5.24,5.24,0,0,1-.56-2l.11-.48-.61.13c-.68,0-.56-.82-1.18-.65-1.05.28-1.45,1.11-2.11.59l-.06.05-.06,0,2.59,3.68Zm12-1a23.62,23.62,0,0,1,5.49-3.88l.37-1.18a31.61,31.61,0,0,0-6.92,5.06Zm44.48-.27-2.89-.7.2-.29,3-.19ZM92.8,65.84l1.47-.27c.11-.75.23-1.49.36-2.23a22.17,22.17,0,0,1,7.57-11.92l1.11-.92A20.89,20.89,0,0,0,92.87,65.35Zm2.32-.44L97.5,65c10.85-2.37,21.39-6.18,31.25-6.44l1.83,0v0C123.44,49.4,114.42,47,107.52,48.7a15.43,15.43,0,0,0-6.4,4.5c-2.81,3.06-5,6.34-5.75,10.14A19.86,19.86,0,0,0,95.12,65.41Zm29.44-.11a2.19,2.19,0,1,1,2.2-2.19A2.19,2.19,0,0,1,124.56,65.3Zm-.44-.69a2.16,2.16,0,0,0,.31,0,2,2,0,0,0,1.14-.72,1.55,1.55,0,1,0-2.31.46A1.41,1.41,0,0,0,124.12,64.6Zm52.81-.12c1.65,0,3.73-.16,3.28-1.46-2-5.28-8.12-4.42-8.17-2C172,62.3,174.7,64.48,176.93,64.48Zm-8.24-.07a4.45,4.45,0,0,0,3.1-.88c1.28-1.29-2.24-5-6.27-5-1.35,0-3.78.57-3.78,1.89,0,.83,2.12,2.33,3.42,3.11A7.19,7.19,0,0,0,168.7,64.41Zm15.25,0c1.5-.06,3.21-1,3.21-2.84,0-3.62-7.54-2.83-7.54-.68,0,.78,1.38,1.66,2.58,3A2.65,2.65,0,0,0,183.94,64.38Zm-24.41-.15h.18c1.31,0,2.32-.48,2.32-1.48,0-3.4-4.61-5.3-7.65-3.51-.83.48-1.15,1-.58,1.68a14.69,14.69,0,0,0,1.94,2.18l.11.08.07-.12c.15-.26.29-.51.41-.76l.07-.13-.36-.77.24,0,.32.36.09-.19a13,13,0,0,0,.79-2.65,13.66,13.66,0,0,1,.41,2.18l0,.51,1.64,1.61-.87,0L158,62.1v.06c0,.37,0,.74,0,1.12l0,.75.19,0A7.29,7.29,0,0,0,159.54,64.24Zm-27.66,0-2.32-.14.1-.23,2.42-.35Zm-7.67-.06h-.06a.85.85,0,0,1-.28,0,1,1,0,0,1-.57-.5c1.12.38,1.89-.37,2.07-1.43l.17,0C125.54,63.54,124.85,64.16,124.2,64.18Zm26.17,0c1.5.06,3-.36,3.48-1.09.62-1.33-2.85-5.31-5.16-4.36a2.88,2.88,0,0,0-2.06,2.59C146.53,63.21,148.46,64.06,150.37,64.13Zm25.5-.22a6.71,6.71,0,0,1-1.78-2.28l.18,0a5.78,5.78,0,0,0,1.59,1.79Zm7.23-.12a15.36,15.36,0,0,1-1.46-2.48l.25-.06a16.19,16.19,0,0,0,1.9,2.47Zm-6.31,0a16.07,16.07,0,0,1-1.54-2.46l.24,0a16.91,16.91,0,0,0,2,2.45Zm-8.92,0a18.07,18.07,0,0,1-1.64-2.7l.25-.06a19.24,19.24,0,0,0,2.08,2.7Zm-1-.2-.68-.19a3.28,3.28,0,0,1-1.5-2.21l.21,0A4.94,4.94,0,0,0,166.89,63.52Zm17.73-.09-1.35-2.21.21,0,1.71,2.21Zm-15.23-.06L168,61.15l.21,0L170,63.32Zm9-.07-1.59-2.1.19,0,1.92,2.08Zm-17.75-.07L158.56,60l.26-.07,2.25,2.53Zm-11.88-.07-.66-1.47.25,0,1.09,1.51Zm1.34,0-.92-2.1.23-.06,1.45,2.08Zm-78.75-.08a.45.45,0,0,0,.26-.06c2.13-1.75,1.87-3.79-2.58-5.86-1.82-.73-2.91.12-3.83,1.82A15.52,15.52,0,0,1,69.93,62l.16.16-1.68-2.31.12-.32L71,61.81l-.58.69.05.05A1.29,1.29,0,0,0,71.34,63.05ZM151.7,63l-1.64-2.59.25-.06,2.09,2.54Zm18.86-.07-1.1-1.83.17,0L171,62.85Zm15.39,0-1-1.81.16,0,1.29,1.46Zm-123,0a3.3,3.3,0,0,0,.49,0,6,6,0,0,0-1.58-2.7,1,1,0,0,0-.48-1.22l-.87-.73.27-.17,1.23.69a4.66,4.66,0,0,0,1.81.18c.32.22.59.28.78.14-1.86-2.09-4.86-2.69-5.26-.53-.71.13-.82,1.23.11,1.59C59.24,61.52,61.38,62.83,63,62.83Zm12.67-.15c.1,0,.15-.07.15-.21l0-.31-1.18-2,.14-.19L76,61.47l0-.15a7.17,7.17,0,0,1,.32-1v0l-.43-.86.14-.14.44.67.1-.19c.37-.66.84-1,1.31-.7a1.24,1.24,0,0,1,.28-.94l.1.05a2,2,0,0,0,.5,2.31c.47.23.39.68.17,1.18a2,2,0,0,0,1.14-3.1c-2.27-2.4-5.09-2.42-7,0-.59.76,1,2.14,1.94,3.59C75.33,62.51,75.54,62.66,75.67,62.69ZM46.39,62.6c.36-.16.72-.29,1.09-.41l.33-.1L46.34,60l.17-.16,1.88,1.76L48,62l.15,0a21.19,21.19,0,0,1,2.74-.53c.37-2.75-2.35-5.88-4.67-4.43a3.87,3.87,0,0,0-2.36,3.06C43.83,61.1,44.59,62.07,46.39,62.6Zm87-.21h.05a.77.77,0,0,0,.3-.1c1.83-1,1.63-2.69.88-2.69l-4.14,0a13.81,13.81,0,0,1-.39,2.33l2.61.11A1,1,0,0,0,133.4,62.39Zm19.29-.13-.51-.93.23,0,.69.93ZM46.44,62.21l-.81-1.37.17-.2,1,1.19ZM58,62.1c.53-.3.74-2.77-1.23-4.23-1.59-1.3-3.42-1.81-4.77-.33A6.7,6.7,0,0,0,51.08,59l1.45,2.51.74,0,.36,0-1-1.84.21,0,1.7,2h.12l.83.09-1.61-2.27.18-.05,2.5,2.12-.4.29.19,0C56.95,61.93,57.48,62,58,62.1ZM61.56,62l-1.07-2,.2-.06,1.81,2Zm10.12-.29L70,59.45l.11-.28,1.76,1.69Zm-22.75-.44-1.73-2.1.18-.17,2.12,1.89Zm8.13-.08L55,59l.22-.09,2.29,1.62ZM179,60.43a4.92,4.92,0,0,1,2.23-1.49l.29-.09,0-.3a2.19,2.19,0,0,0-1.15-2.36l.26-.17a3,3,0,0,1,1.73,2.23l.09.35.11,0a10,10,0,0,1,1.16-.16c-1.17-3.72-5.23-5-7.79-2a4,4,0,0,1,1,2.72A5.44,5.44,0,0,1,179,60.43Zm-99.47-.2-.72-1,.13-.14.81.74ZM171,60.14a7.36,7.36,0,0,1,3.2-1.37h.05l0-.2a1.62,1.62,0,0,0-.72-1.9l.28-.16a2.16,2.16,0,0,1,1.21,1.8l0,.38h.05a8.45,8.45,0,0,1,1.26.06,3.59,3.59,0,0,0-6.2-2,3.25,3.25,0,0,1-1.09,2.13A16,16,0,0,1,171,60.14Zm-9.89-.34c1.15-1.5,3.07-2,5.61-1.64l2.2-1.77.24.07-1.31,1.29c-.53.44-.18.87.46.89.8-.75,1.84-1.17,1.34-3.64a10,10,0,0,1-6.55,1.26c-.25-.18-.07-.36.23-.53a6.43,6.43,0,0,0,2.95-2.67,6.9,6.9,0,0,1-4.86,1.2c-.26-.06-.17-.27.08-.56l2.4-2.78a12.77,12.77,0,0,0-7.48,6.64h-.28a19.05,19.05,0,0,1,5.07-6.31,5.27,5.27,0,0,1-2.17.29c-2.15,2-4.26,3.16-6.34,3.33-.15-.72.14-2,1.17-4.26a6.6,6.6,0,0,0-1.89.79l-1,.93,0-.08-.12.13-.23.3-.11.11-.09.17-.29.41a7.06,7.06,0,0,0-.57,1.23l-.07.23,0,.09,0,.22-.26,1a14.14,14.14,0,0,0-.22,1.78,2.4,2.4,0,0,1,1,.09,5,5,0,0,1,.86.37,8.35,8.35,0,0,1,1.19-4.24l.1.3c-.77,1.44-.81,4.1-.22,4.64l.79.62C155.34,57.53,158.18,57.44,161.08,59.8ZM72,58.31a10,10,0,0,1,1.35-1h0v-.08a4.19,4.19,0,0,0-1.24-2.36l.21-.11A4.46,4.46,0,0,1,74,56.64l.08.2.28-.13.37-.16c-.52-2.69-5-4.13-6.68-.07A10.26,10.26,0,0,1,72,58.31Zm-14.12,0c1.53-2,3.44-2.23,5.76-.66l2.25-1.69,2-2.22.43.07-2,2.74a1.13,1.13,0,0,0,.55.13l.11,0h.06l.16-.08.08,0,0,0,.06,0a1.31,1.31,0,0,0,.3-.35,11,11,0,0,0,.72-1l.16-.3.12-.16.09-.18v0l.14-.25a3,3,0,0,0,.24-1.79,6.91,6.91,0,0,1-5.14.28c-.46-.22-.15-.83.56-.82.94,0,1.75-1,2.53-2.12-2.78,1.31-5.2,1.87-6.07,1.05l2.31-2.44a23.27,23.27,0,0,0-4.89,3,19,19,0,0,0-3.29,4l-.1-.29L56,53.62a20.68,20.68,0,0,1,4.8-4.82,9,9,0,0,1-2.4.21c-2.52,1.94-6.18,3.78-6.18,3a8.94,8.94,0,0,1,1.08-3.31,8.24,8.24,0,0,0-4.47,3.27l-.2.36h0l-.08.18-.33.61-.3.84-.11.28,0,.16,0,.1a14,14,0,0,0-.35,1.64l.38.08,1.32.27h0l.06-.4a9.75,9.75,0,0,1,1.46-3.69l.12.29-.13.35,0-.06-.28.85-.23.63,0,.14-.08.23-.11,1-.06.48v.18l0,.12.23.07,0,.05,0,.16,0,.16a6.76,6.76,0,0,1-.06.87l0,0L51,57h0l1-.55a4.12,4.12,0,0,1,2.12-.21l1,.27h0l1,.45A7.15,7.15,0,0,1,57.88,58.28Zm62.76-.49-.17-.19,6.16-1.45,1,1.1Zm-41-1.14c.18-1.9.28-3.6-2.66-3.6-1.76,0-2.78.37-3,1.23,0,.56,1.21-.28,2,2a5.14,5.14,0,0,1,2,0l.15,0v-.14a4.09,4.09,0,0,0-.74-2.19l.19,0a2.83,2.83,0,0,1,1.2,2.38v.12l.13,0Zm39.87-.28-.25-.16,5.67-1.65,1,.86Zm56.1-.06a3.4,3.4,0,0,1,.63-.95,8.24,8.24,0,0,1-3.5-3.4,8.94,8.94,0,0,1-2.35,2.54l.06,1.57C172,55,173.65,54.9,175.61,56.32Zm-11.82-.38c3.49,0,6-1.2,7.59-3.43l-.48-.1-.15,0-.21.21a8.8,8.8,0,0,1-4,2.28l.23-.24a6.76,6.76,0,0,0,3.06-2.14l.23-.32h0a8.2,8.2,0,0,1-1.94-.92C167,53.62,165.39,54.74,163.79,55.93ZM176.62,55a5.25,5.25,0,0,1,2-.92l-.1-.91a4.77,4.77,0,0,1-3.27-1.69,11.29,11.29,0,0,1-1.5.6A4.9,4.9,0,0,0,176.62,55Zm-58.69-.42-.28-.19L122.89,53l1.25.92Zm35-.41a16.74,16.74,0,0,0,6.82-4.38c.26-.28.42-.44.56-.6h0l0,0,.13-.17.26-.33.06-.07,0,0,.14-.19.34.07c-.53.5-1.2,1.68-2,2.64,1.47.12,4.26-1.35,5.49-2.84.32-.47-4.39,0-3.19-.91a6.88,6.88,0,0,0,3-4.67c-1.13.69-2.73.23-3.94-.37,1.88-.91,3.43-3.71,3.08-7.49a4,4,0,0,1-2.24.5v-.13c1.18-.59,1.82-1,2.07-1.73a8,8,0,0,1,.86-5.78,10.53,10.53,0,0,0-2.42-.59h-.12l-.11,0-.64,0-1.15,0-.21.06h-.17l-.58.21-.73.21-.28.15-.2.07-.51.31-.48.25-.43.29-.14.07-2.62,1.66-.49.23-.89.26-.69.12-1.67-.13c-.36-.11-.56.07-.5,1-.13,1.47,1.27.51,1.56.12l.18.14A2.24,2.24,0,0,1,150,33.88c-.18.2-.11.45.25.8.69.48,1.72.26,2.79.38,2.19.17,3.94,1.51,3.94,3.15-.16,1.67-1.43,1.9-4.84,1.51-.74-.18-.88.26-.88,1.3a2.55,2.55,0,0,0,.61,1.67h0l0-.14a2.28,2.28,0,0,1,.57-1.07l.07.16a2,2,0,0,0-.36,1v.14h0c.46-.14,2-1.34,3.61-1.25s2.62,1.11,2.62,2.09c0,3.25-7.7,1.52-7.7,8a9.12,9.12,0,0,1,.81-.51l.07,0,0-.26a4.86,4.86,0,0,1,1.27-2.55l.06.26a4.84,4.84,0,0,0-.88,2l0,.34.85-.3.06-.22a5.68,5.68,0,0,1,1.81-2.59l0,.24a5.25,5.25,0,0,0-1.26,2l.81,0A8.47,8.47,0,0,1,157,47.81l0,.24-.17.12-.08,0-.13.08-.63.46-.56.4-.06.06-.14.1a5.08,5.08,0,0,0-1.1,1.32A12.53,12.53,0,0,0,153,54.16Zm-83.37-.21a3.85,3.85,0,0,1,3.85,0,4.79,4.79,0,0,1,1.5-1.24l.11-.06-.21-.12a9.24,9.24,0,0,1-2.23-2.11l-.17-.22h-.07a4.35,4.35,0,0,1-2.08,1.73A3.4,3.4,0,0,1,69.59,53.95Zm93.58-.54a7,7,0,0,0,4.29-1.77l-.16-.25a10.18,10.18,0,0,1-3,1.26l.2-.33a14,14,0,0,0,3.12-1.48c-.17-.15-.34-.3-.51-.47l-.05-.06-.13.11a4.78,4.78,0,0,1-1.87.88l.09-.24a4.8,4.8,0,0,0,1.29-.86l.29-.29-.05-.07a6.21,6.21,0,0,1-1-2.09,15.07,15.07,0,0,1-3.27,5.59A5.16,5.16,0,0,0,163.18,53.41Zm-46.75-.28-.37-.18,4.46-1.4,1.22.7Zm-41-.73.17-.09.75-.37a3.29,3.29,0,0,1,.16-1.53,6,6,0,0,1-1.27-1.08,4.27,4.27,0,0,1-1.39.46l-.14,0,.08.28a4.64,4.64,0,0,0,1.49,2.22Zm103.89-.08a8,8,0,0,0,3.55-.92,5.75,5.75,0,0,1-5.14-4.62,6.63,6.63,0,0,1-1.36,2.35l-.09.1.09.17a4.92,4.92,0,0,0,1.72,2l-.25.06A5.72,5.72,0,0,1,176,49.8l-.12-.18,0,0a4.54,4.54,0,0,1-.84.51A4.68,4.68,0,0,0,179.32,52.32ZM66.58,52.2a7,7,0,0,0,5.48-2.76l-.36-.13-.28-.12-.14.13a6.64,6.64,0,0,1-3.85,2.06v-.22h0l.76-.2A7.07,7.07,0,0,0,70.67,49l.13-.16-.13-.08a6.34,6.34,0,0,1-1.3-1.09,20.14,20.14,0,0,1-2.09,2.73l-.88.84-1.17.87A8.44,8.44,0,0,0,66.58,52.2Zm48.14-.34-.34-.09,3.44-1.4,1.33.53Zm56.75-.34a7.66,7.66,0,0,0,3.22-.68l-.33-.44-1.85.4H172l-1.52-.23-.43-.11-1.59-1a2.29,2.29,0,0,1-.6-1.72h.26c.41,3.22,6.76,3.37,8.84-.86l-.51-.09a8.69,8.69,0,0,1-.92,1c-3.06,2.57-6,1.1-6.49-.49l.26-.07a3.18,3.18,0,0,0,3,1.61A4.67,4.67,0,0,0,176,46.55l-.51,0c-1.61,2.31-4.59,1.75-5.17.51l.25,0c1.07,1.05,4,1,4.49-1.07A6.74,6.74,0,0,1,172.73,42h.36l.08.39.21.41.27.7.25.3.13.25.29.24.31.38.52.32.28.23.25.11.27.17.84.27.39.16h.14l.15,0,1.63.15h0l1.61-.19.49-.18.28-.06.21-.13.51-.2a5.06,5.06,0,0,0,1.27-.9l-1.29-.16-.37-.1-.61-.19-1.29-.77a11,11,0,0,1-1.42-1.83,11.13,11.13,0,0,0-1.3,0h0l.1.16a8.19,8.19,0,0,1,.7,1.78l-.2,0c-1.23-2.81-2.26-2.07-3.7-3.57l.14-.15a5.24,5.24,0,0,0,1.54.7h.06l0,0,.54.06,1.06.15h.24l1.12-.18.57-.08,0,0h.06a4.77,4.77,0,0,0,1.54-.81,7.55,7.55,0,0,1-4-1.78,4.08,4.08,0,0,1-4.45-1.11l.19-.18,0,0h0l.15.15.28.17.37.3.22.06.14.09.29.05.35.11h.17l.34.06h.2l1.45-.22h0a8.59,8.59,0,0,0,1.41-.57l.43-.27.22-.1.18-.16.41-.26a5.56,5.56,0,0,0,.91-.9l-1.89.09L178,35l-1-.23c-.75-.29-1.19-.6-1.59-.44a4.39,4.39,0,0,1-4.09-1l.09-.09.05-.06a4,4,0,0,0,1.1.45l.26,0,.14.06h.27l.53.06.32-.07h.49l.77-.27.42-.08.14-.11.23-.09a4.73,4.73,0,0,0,1.33-1.08c.46-.57.94-1.17,1.26-1.66l.07-.12.06-.08.07-.15.16-.28v-.08l.05-.11,0,0v-.11l0,0-.06.05,0,0h0v0h0a9.24,9.24,0,0,1-2.83.59,10.9,10.9,0,0,0-2,0l-2-.12-.56-.27L170.37,29l.33-.19c1.6,1.06,3.45.87,5.22-.35l1.57-1.42.05,0,.11-.13a9.39,9.39,0,0,1-5.55-1.64c-.42-.34-1.35-.12-1.22.09s.79.25,1.17.48c.8.45,0,.5,1.92,1.49l-.31.11a5.48,5.48,0,0,0-3.13-1.26,1.53,1.53,0,0,0-.63.26l-.06,0h0l-.14.14-.35.29,0,.08,0,0-.06.07-.2-.28c.87-1.08,1.61-1.6,1.61-3.2a2.28,2.28,0,0,0-.48-1.42l-1.05-.79,0-.06-.09,0h0a4.25,4.25,0,0,0-1.55-.34h-.06v0l-1.47.29a2.88,2.88,0,0,1-.22,2.45h-.27c-.16-2-.39-3.15-1.11-3.81-.89-.8-2.86-.77-4.27-.24,2.11.9,3.26,2.2,3.54,3.09l-.21.08c-3.11-2.55-5.92.07-5.53,1.19a5.58,5.58,0,0,1,2.39-.32l-.11.17c-3.23.38-4.76,3-4.32,4.45l.83-.39a3.49,3.49,0,0,1,1.24-2.44l.23.08a3.15,3.15,0,0,0-1,2.25l.87-.44c.79-2.3,3.33-2.79,4.61-.7l.86,0a4.1,4.1,0,0,0-1.29-2l.12-.23a4.94,4.94,0,0,1,2.17,2.86l.4,0a4.24,4.24,0,0,0-.22-2.28l.25,0a4.69,4.69,0,0,1,.66,1.71l.45-.27c0-.54.05-1,0-1.58l.24,0a3.62,3.62,0,0,0,.21,1.17l.69-.4,0,0,0,0,.09.12c-1.85,1.14-3.06,2.35-3.06,5.51,0,3.37,1.5,7.05-2.37,10.81,3,.48,6.12-1.59,8.42-4.53l.18.44a11.35,11.35,0,0,1-4.71,4.09,9.94,9.94,0,0,1-3.85,5.5c2.93.23,5.92-1.65,8.5-5.16l.08.41c-1.27,2-3.16,3.37-4.48,4.76l1,1.77-.06,0,.14.19a5.31,5.31,0,0,0,1,1l.23.13.12.1.28.12.46.26.3.06.46.18A6.72,6.72,0,0,0,171.46,51.52ZM53,51.27A15.22,15.22,0,0,0,59.28,47a5.48,5.48,0,0,0,.44-.51L60,46l-.1.06,1-1.31,0,.25a24.49,24.49,0,0,1-2.15,3.26c1.49.27,4.34-1.11,5.59-2.76.34-.45-2.53-.54-1.31-1.5a7.61,7.61,0,0,0,3.45-4.84,3.58,3.58,0,0,1-3.57.21c1.91-.91,3.07-2.79,2.72-6.58a3.15,3.15,0,0,1-2,.39V33.1a2.27,2.27,0,0,0,1.85-1.4,9,9,0,0,1,1.07-7.16,11.63,11.63,0,0,0-2.72-.26c-4,.1-5.94,2.66-8.49,3.36a4.76,4.76,0,0,1-1.62.16,5.86,5.86,0,0,1-1.91-.48c-.18,0-.31,0-.39.09v0h0l0,.24-.08.49v.1h0v.07c.06,1,1.35.61,1.58.12l.2.14a2.26,2.26,0,0,1-1.22,1.73c-.17.19-.11.45.26.79a3.22,3.22,0,0,0,1,.67l.24,0,.12.06h.28l.43.09h0l-.06-.07.74,0,1.63.2.53.17,1,.43.45.29.71.69.28.34.39,1.26h0l-.42,1.4c-.82,1.08-2.82,1.15-5.53.38-.75-.17-.89.26-.89,1.31a3.17,3.17,0,0,0,.27,1.67h0l0-.14A2.27,2.27,0,0,1,54,38.9l.08.16a2,2,0,0,0-.36,1v.14h0a9.06,9.06,0,0,1,3.71-1c1.78.1,2.9,1.24,2.9,2.21,0,1.63-2.49,2-5,2.79l-.79.31h-.06l-.08,0-.43.19-.47.18-.49.26-.15.07-.06,0-.14.08a5.09,5.09,0,0,0-.75.55l-.21.22-.12.08-.17.21-.14.14-.08.12-.13.16-.16.31-.12.21,0,.1-.07.12-.14.49-.08.24v.06l0,.06a5.46,5.46,0,0,0-.09,1,6.91,6.91,0,0,1,.82-.51l.08,0,0-.27a3.45,3.45,0,0,1,1.15-2.15l.06.25a3.27,3.27,0,0,0-.78,1.61l0,.34.26-.11a5.25,5.25,0,0,1,.52-.17l.08,0,.07-.21a3.31,3.31,0,0,1,1.34-2l0,.23a2.62,2.62,0,0,0-.83,1.54l0,.33.15,0c.13,0,.27,0,.4,0a9.51,9.51,0,0,1,2.71-3.06l0,.24a12.52,12.52,0,0,0-2.36,2.82l-.7,1.43h0l0,.13A5.81,5.81,0,0,0,53,51.27ZM111.88,51l-.4,0,2.81-1.58c.47.08.9.17,1.31.27Zm-32.33-.42h.18a3.74,3.74,0,0,0,1-.19l.06,0,.07,0,.22-.14L81.6,50l.18-.16h0a4.13,4.13,0,0,1-2.06-3.18,11.12,11.12,0,0,1-2.47-.75l-.34-.16-.62.55-.37.27-.19.12a5.33,5.33,0,0,0,.54,1,5.12,5.12,0,0,0,2.48,1.89v.27a6,6,0,0,1-3.19-2.2L75.12,47l-.29.13-.54.17.06.11a6.24,6.24,0,0,0,5,3.18Zm-17.74-.09c3-.13,5.51-1.11,7.19-3.3a2.8,2.8,0,0,1-.21-.25l0,0-.33.3a10.21,10.21,0,0,1-1.72,1.18,11.66,11.66,0,0,1-2,.86v-.2A10.71,10.71,0,0,0,68.19,47l.36-.34-.13-.22a3.64,3.64,0,0,1-.22-.41h0l-.17.14a7,7,0,0,1-2.41,1.45l0-.21a6,6,0,0,0,2.26-1.78l.12-.17,0-.1c-.09-.23-.18-.5-.26-.77a4.27,4.27,0,0,1-2,.8A17.86,17.86,0,0,1,61.81,50.52Zm47.5-.28-.36,0,1.88-1.11,1.41.06ZM73.1,48.75a9.81,9.81,0,0,0,1.68-.19,6.17,6.17,0,0,1-.73-1.09l0-.07-.6.09-1.68-.22L71.29,47l-.85-.55L70.09,46l-.46-.73-.11-.56-.08-1,.26.16c.08,2.9,4,3.9,6.08,1.75l.34-.37-.56-.41a2.34,2.34,0,0,1-.64.6c-1.91,1.17-4,.24-4.31-1.39l.29.06h0l.06.13.19.23.39.56.18.09.1.11.3.07.4.2h.33l.23.05.38-.07h.19l.11-.06.18,0a2.55,2.55,0,0,0,.79-.44,2,2,0,0,0,.44-.47L74.74,44l-.25.25a2.48,2.48,0,0,1-1.5.55,1.44,1.44,0,0,1-1.28-.71l.28,0a1.73,1.73,0,0,0,2.37-.35l.1-.14-.13-.21a6.44,6.44,0,0,1-.8-2.87h.35L74,41l.18.36.27.81.36.52.15.3.2.2.24.34.95.83.18.18.06,0,.06.05a7.76,7.76,0,0,0,1.46.8l.23.06.15.08.36.07.82.24.57,0,.33.06a1.09,1.09,0,0,0,.27,0l.17,0h.21l.84-.21.46-.09.07,0,.1,0a4.05,4.05,0,0,0,1.24-.84c-2.68-1.22-1.94-1.88-3.25-3a6,6,0,0,0-1.28-2.6c-.5-.51-1.27-.29-1.2-.11a8.21,8.21,0,0,1,1.31,2.46l-.2,0c-1.28-2.78-3.35-3.07-4.63-4.68l.14-.15h0l.36.35a5,5,0,0,0,3.06,1.08h.32l.13,0h.12l1.39-.29.71-.13,0,0,.07,0a4.6,4.6,0,0,0,1.7-1.12,7.92,7.92,0,0,1-4-1.92c-2,.55-3.61.26-4.8-.91l.2-.18.21.16.2.22.25.12.2.16.26.08.23.12.29,0,.24.07h.16l.4.06a5.64,5.64,0,0,0,1.59-.25l.09,0h0l.21-.1,1.19-.46.51-.33.26-.12.18-.16.39-.25a5.53,5.53,0,0,0,1-.93L81,32l-.27,0-.62-.17a5.77,5.77,0,0,0-1.25-.57c-1.14-.12-1.95-1.12-2.75-.78a3.56,3.56,0,0,1-3.88-.85l.14-.15.11,0,.06.05a3.15,3.15,0,0,0,.55.24l.39.08.36.15h.37l.39.08h.24L75,30h.3l.8-.27.43-.09.09-.08.15,0a4.87,4.87,0,0,0,1.29-1.07,6.36,6.36,0,0,0,1.41-2.14c0-.1-.09-.15-.25-.13-3.32,1.07-3.28-.31-4.36.05-2.78,1.25-4.39-1.58-3.79-2.26l0,.05.31.48.16.15.21.28.43.3.19.17.1,0,.11.08.91.22h.29l.26-.06.39,0,.14-.08.31-.06a5.09,5.09,0,0,0,1.1-.6l.14-.14.17-.09A8.08,8.08,0,0,0,78,22.88a6.74,6.74,0,0,1-4.63-1.8c-.44-.2-.77.31-.63.52a12.74,12.74,0,0,1,2.05,1.73l-.3.11c-1.17-1.15-2.26-1.82-3-.69l-.21-.28c1.82-2.76.42-4.72-1.26-5.38a3.22,3.22,0,0,0-1.69-.21,17.22,17.22,0,0,1,.47,3.87l-.33,0c-.67-4.64-4.06-5.46-6.62-4.22,2.17.7,3.63,2.31,3.85,3.38l-.22.08c-2.84-3.1-5.95.38-5.25,1.44A3,3,0,0,1,63,21.28l-.16.15C60.5,20.66,58.74,23.3,59,25l.57-.22a2.24,2.24,0,0,1,.77-1.9l.23.07A2.2,2.2,0,0,0,60,24.68l.55-.22A2.42,2.42,0,0,1,63.7,22.9a3.63,3.63,0,0,1,1.28.88l.44,0a2.63,2.63,0,0,0-.28-.68l0,0,0-.06-.17-.18-.37-.45-.21-.17h0l0,0,.12-.22.9.72.34.31.54,1.19.53-.05a4.62,4.62,0,0,0-1.33-2.92h0l.13-.17a3.68,3.68,0,0,1,1.74,2.89l.28-.18a4.2,4.2,0,0,0-.47-2.4l.14-.15a4.09,4.09,0,0,1,1,2.05l.4-.28.16.2A6,6,0,0,0,66,28.19c0,3.39,1.37,6.88-1.34,10.71a7.65,7.65,0,0,0,1.88-.37l.06,0h.06l.56-.28,1.14-.53.12-.09.12-.06.6-.5.92-.69.18-.2.16-.13.57-.68.78-.85.4-.53h0l0,0,.26.11a11,11,0,0,1-5.19,4.93,9.9,9.9,0,0,1-3.85,5.51l.64,0h.27l1.15-.2.44,0,.14-.08.19,0a7.15,7.15,0,0,0,1.83-1l.09-.09.08,0,.31-.32,1.23-1.12.34-.47.25-.25.35-.56.64-.87.12-.2,0-.12.84-1.35.14.3a14.62,14.62,0,0,1-4.48,6C68.92,47.67,70.78,48.78,73.1,48.75Zm91.31-2.14.37-.74c1.24-.33,3.43-2.49,4.69-4.76l.13.45C168.32,43.85,166.21,46.21,164.41,46.62Zm-84-1.45a6,6,0,0,1-5.73-5l.27-.07c.49,2.58,3.28,5,6,4.56l.25.49a4.47,4.47,0,0,1-.56,0Zm97.08,0a4.58,4.58,0,0,1-3.59-3.48h.41c.51,1.51,1.43,2.57,3.75,3.39ZM66,43.47l.36-.73h0c1.24-.33,3.43-2.49,4.7-4.77l.13.45-1.76,2.37-.87,1.05-.8.68-.44.35Zm111.17-2h0Zm-13.65-.12a13.38,13.38,0,0,0,6.29-5.39l.28.27a11.75,11.75,0,0,1-5.64,5.07Zm-7.38-.76h-.33l0-.14c2.69,0,2.37-4,.3-4.87l0-.18a3,3,0,0,1,2.23,3l-.6,1.38-.09.11-.25.2-.41.27-.34.1Zm21.08-.34a3.86,3.86,0,0,1-2.46-1.14l.2-.19c1.17.85,2.26,1.21,3.17.65h0l.45.41A3.71,3.71,0,0,1,177.27,40.22Zm-21.66-1.58.08-.41a4.84,4.84,0,0,0-2.66-1c1-.55,2.16-.14,3.2.75v-.22c-2.65-2.92-7.46,1.21-10.47-1.56C148.37,39.79,151.93,36.12,155.61,38.64Zm-97-.66v-.17c3.79-.41,2.78-4.93-.26-5.69V31.8c2.61.49,3.56,2,3.57,3.33A3,3,0,0,1,58.64,38ZM78,37.63l-1-.23-.19-.11-1.12-.77.19-.19c1.17.85,2.26,1.21,3.16.65l.24.22h0l.22.2Zm-11.81,0A16,16,0,0,0,72,32l.36,0-1,1.52-1.77,2-.45.43-2,1.55Zm108.83-.92h-.16a2.5,2.5,0,0,1-1.27-.44l.35-.17a2.68,2.68,0,0,0,1,.3,2.25,2.25,0,0,0,1.13-.24l.15.24A3.25,3.25,0,0,1,175.06,36.7ZM58.81,36.27l.08-.54a4.26,4.26,0,0,0-2.65-1.35c1-.72,2.15-.19,3.19,1v-.3C56.8,31.17,52.29,36.46,48.31,33,51.05,37.31,55.12,32.89,58.81,36.27Zm100.07-2.35v-.28a2.89,2.89,0,0,0,2-2.61l.18.84A2.62,2.62,0,0,1,158.88,33.92Zm-2.38-.15a.09.09,0,0,1-.11-.09l-.27-1.86c0-.28-.34-.63-.78-1l0-.23.28,0a5.25,5.25,0,0,0,1.36,0c1.12-.06,1.71-1.4,2.54-1.47a12.52,12.52,0,0,1,2-.08v0h0l-.06.14-.45,0c-.41,0-2,0-1.74.75,1.07,1.95-.13,3.12-1,3.18a1.52,1.52,0,0,1-1.17-.53c-.16-.16-.32-.22-.4-.08l-.13,1.09A.11.11,0,0,1,156.5,33.77Zm-80.32,0-1-.31L74.45,33l.16-.22a2.33,2.33,0,0,0,2.68.25l.15.23h0l.15.23A3.19,3.19,0,0,1,76.18,33.77Zm97.44-.39h-.17a2.73,2.73,0,0,1-1.82-.71l.2-.2a2.79,2.79,0,0,0,1,.38,3.24,3.24,0,0,0,1.19,0l.1.52A4.07,4.07,0,0,1,173.62,33.38Zm-15.91-.66c.64,0,1.22-.81,1.33-1.45a2,2,0,0,0-.2-1.3l-.6.42c.13.52.06,1-.25,1.11s-.52.08-.68-.33a.92.92,0,0,1-.08-.31l-.55,0v.23C156.73,32,157.08,32.68,157.71,32.71ZM62,31.19l0-.2v0a2.31,2.31,0,0,0,1.47-2.17l.17.66A2.1,2.1,0,0,1,62,31.19Zm-2.65-.14a.1.1,0,0,1-.11-.11L59,29.07c0-.27-.33-.65-.79-1.07-.1-.19.08-.34.32-.24a6.3,6.3,0,0,0,1.38.15c1.14,0,1.74-1.28,2.59-1.28l2.8,0-.09.17-1,.06-.78.34h0l0,0h0c-.27.2-.48.46-.46.63A2.29,2.29,0,0,1,62,30.22a1.28,1.28,0,0,1-.64.2,2,2,0,0,1-1-.27,2.83,2.83,0,0,1-.81-.72l0,.79h0l0,.73A.11.11,0,0,1,59.39,31.05ZM61,30c.73,0,1-.8,1.32-1.61a1.65,1.65,0,0,0-.49-1.19v0l-.05,0-.29.25-.08.06,0,0a.88.88,0,0,1,.18.27.65.65,0,1,1-1.15.53,1.17,1.17,0,0,1-.1-.31v0l-.11,0a2.57,2.57,0,0,1-.47.06h-.16l0,.1c0,.05,0,.11,0,.16C59.74,29.24,60.37,30,61,30Zm13.46-.63L74,29.27l-.47-.15-.73-.45.2-.19a3,3,0,0,0,2.22.35l.09.51Zm94.13-3-.37-.59c.68-.57,2-1.91,1.38-3l.14-.25C170.55,23.88,169.54,25.58,168.61,26.36ZM70.47,22.13l-.38-.6a2.52,2.52,0,0,0,.48-3l.12-.23,0,0h0l.27.58.26,1.27-.41,1.3Zm49.6,153.46a3.31,3.31,0,0,1-.47,0,1.62,1.62,0,0,1-1.25-.76l-.22-.79h0l.09-.45a1.31,1.31,0,0,1,.53-.59l.05,0-.09-.25a4.28,4.28,0,0,1,.7-2.23l.08-.09-.06-.16c0-2.81,3.08-2.38,3.08-3.18,0-.12-.12-.4-.67-.43s-.84.33-1.3.48h0l-.24,0h-.11a.37.37,0,0,1-.18-.13,1.44,1.44,0,0,1-.33-.91,1.11,1.11,0,0,1,.29-.83l.16-.06-.55,0a2,2,0,0,1-2-.83c-.15-.2-.19-1.08,0-1.2s.46.53.63.68a1.23,1.23,0,0,0,.86.26l.84-.09-.1,0a.86.86,0,0,1-.34-.15l0,0a.74.74,0,0,1-.27-.6l.09-.19-.09,0a.63.63,0,0,1-.16-.25l0-.28v0l0-.26c.06-.32.25-.63.68-.5a1.73,1.73,0,0,0,1.22-.17l.61-.39,0-.34a1.87,1.87,0,0,1,.75-1.37l.11-.08,0-.29a1.39,1.39,0,0,1,1.26-1h0l-.17-.09a.4.4,0,0,1,0-.74,2.27,2.27,0,0,1,2.11.18,1.45,1.45,0,0,1,.26.33l0,.13.45-.13a1.64,1.64,0,0,1,1.94,1.45l0,.21h.12l.32.14a3.36,3.36,0,0,0,2,.58.4.4,0,0,1,.3.67l-.62.55h.08A5.34,5.34,0,0,0,131,161l.06,0s1,0,.37.94a9.44,9.44,0,0,1-.6.78l-.34.27.07,0a2.09,2.09,0,0,0,1.06.21.4.4,0,0,1,.39.64,2.94,2.94,0,0,1-.7.6l-.33.16.3.2a4.28,4.28,0,0,0,.73.2.4.4,0,0,1,.17.71,2.15,2.15,0,0,1-.72.37l-.07,0,.36.48a1.81,1.81,0,0,0,1.17.38.41.41,0,0,1,.26.69,3,3,0,0,1-2,.76h-.11l.14.37a1.91,1.91,0,0,0,1.51,1,.4.4,0,0,1,.13.74,3.61,3.61,0,0,1-.74.29l-.8.12,0,.27a.41.41,0,0,1-.31.43,1.41,1.41,0,0,0-.62.29l-.08,0,0,.09a1,1,0,0,0-.18.25.39.39,0,0,1-.6.17,1.9,1.9,0,0,0-.45-.25l-.26-.06.67,1,.6-.18c.79-.08,1.68.27,1.68,1.08a1.36,1.36,0,0,1-1.28,1.4,1.08,1.08,0,0,1-.6-.23l0,0-.28-.28-.38.39a1.77,1.77,0,0,1-1,.26,1.17,1.17,0,0,1-.67-.26l0,0-.06-.06-.17.14a.67.67,0,0,1-.22.09,3.27,3.27,0,0,1-.91.1,2.39,2.39,0,0,1-1.31-.48l-.16-.17v.05a.8.8,0,0,1-.17.26,1.78,1.78,0,0,1-1.21.38,2.54,2.54,0,0,1-1.25-.32l-.27-.17-.31-.23,0,.16,0,.05A1.58,1.58,0,0,1,120.08,175.6Zm-.44-.74a1.38,1.38,0,0,0,1.13-.35c.2-.43-.93-1.73-1.68-1.42a.92.92,0,0,0-.67.84C118.39,174.56,119,174.83,119.64,174.86Zm3.37,0a1.39,1.39,0,0,0,.91-.25c.38-.39-.66-1.49-1.86-1.49-.4,0-1.12.17-1.12.57,0,.24.63.69,1,.92A2.1,2.1,0,0,0,123,174.84Zm5.07,0a1,1,0,0,0,1-.92c0-1.19-2.45-.93-2.45-.22,0,.24.44.54.83,1A.88.88,0,0,0,128.09,174.83Zm-2.22,0c.53,0,1.21,0,1.07-.48-.67-1.72-2.65-1.45-2.67-.66C124.28,174.09,125.15,174.81,125.87,174.81Zm4.53-.09a.84.84,0,0,0,.88-.77c0-1-2-.76-2-.18,0,.21.37.45.69.82A.71.71,0,0,0,130.4,174.72Zm-7.64-.09a5.58,5.58,0,0,1-.49-.8h.07a5.49,5.49,0,0,0,.62.81Zm5.05,0a5.3,5.3,0,0,1-.47-.8l.08,0a6,6,0,0,0,.63.82Zm-2.29,0a2.18,2.18,0,0,1-.59-.75H125a1.81,1.81,0,0,0,.52.58Zm-3.05,0-.2-.06a1,1,0,0,1-.44-.66h.06A1.43,1.43,0,0,0,122.47,174.57Zm3.35,0a5.32,5.32,0,0,1-.5-.8l.08,0a6,6,0,0,0,.64.8Zm4.36,0a4.55,4.55,0,0,1-.4-.67h.07a4.24,4.24,0,0,0,.52.67Zm-11.07,0-.21-.48.08,0,.35.49Zm.44,0-.3-.69.08,0,.47.68Zm3.67,0-.4-.66h.05l.51.66Zm5.09,0-.43-.72.07,0,.56.72Zm-8.23,0-.53-.84.07,0,.68.83Zm10.51,0-.36-.6.05,0,.47.6Zm-4.26,0-.51-.68.06,0,.63.69Zm-2.77,0-.33-.54h.05l.42.54Zm5.18-.05-.32-.59h.05l.42.48Zm2.21,0-.28-.49h.05l.35.4Zm-10.56-.05-.16-.31.07,0,.23.31Zm3.48-.85a2.24,2.24,0,0,1,2.23-.66L127,172l.1,0-.51.51c-.21.17-.08.34.18.35a1.19,1.19,0,0,0,.53-1.45,3.92,3.92,0,0,1-2.61.49c-.1-.07,0-.13.1-.2a2.6,2.6,0,0,0,1.18-1.07,2.85,2.85,0,0,1-1.94.49c-.11,0-.07-.12,0-.23l1-1.1a5.08,5.08,0,0,0-3,2.64h-.11a7.62,7.62,0,0,1,2-2.51,2.27,2.27,0,0,1-.87.11,4.36,4.36,0,0,1-2.52,1.33,3.12,3.12,0,0,1,.46-1.69c-1.09.27-1.84,1.08-2,2.9a1.32,1.32,0,0,1,.73.18,3.39,3.39,0,0,1,.47-1.69l0,.13a2.16,2.16,0,0,0-.08,1.85l.31.26A2.48,2.48,0,0,1,123.87,173.4Zm5.22-.08-.93-1.44-1,1.05A2.47,2.47,0,0,1,129.09,173.32Zm.57-1.31a1.71,1.71,0,0,1,.25-.38,3.36,3.36,0,0,1-1.39-1.35,3.49,3.49,0,0,1-.94,1l0,.63A1.6,1.6,0,0,1,129.66,172Zm-4.71-.16a3.48,3.48,0,0,0,3-1.37l-.19,0-.06,0-.09.09a3.51,3.51,0,0,1-1.61.91l.09-.09a2.77,2.77,0,0,0,1.23-.86l.09-.13h0a3.54,3.54,0,0,1-.78-.37A4.24,4.24,0,0,1,124.95,171.85Zm5.12-.37a2,2,0,0,1,.79-.37l-.05-.37a1.92,1.92,0,0,1-1.3-.67,4.63,4.63,0,0,1-.6.23A2,2,0,0,0,130.07,171.49Zm-9.43-.34a6.78,6.78,0,0,0,2.72-1.75,3.45,3.45,0,0,0,.46-.55l0,.1a5,5,0,0,1-.68,1,3.34,3.34,0,0,0,2.19-1.13c.13-.18-1.74,0-1.27-.36a2.71,2.71,0,0,0,1.19-1.86,1.7,1.7,0,0,1-1.57-.15,2.93,2.93,0,0,0,1.22-3,1.59,1.59,0,0,1-.89.2v-.05a1.1,1.1,0,0,0,.83-.6,3.4,3.4,0,0,1,.34-2.39c-3.13-1.11-3.62,1.85-5.8,1.29-.15,0-.23,0-.19.4-.05.58.51.2.61,0l.08.06a.89.89,0,0,1-.49.69c-.06.08,0,.18.11.32s.68.11,1.11.16c.88.07,1.56.6,1.56,1.25s-.56.76-1.92.6c-.29-.07-.35.11-.35.52a1.09,1.09,0,0,0,.23.67h0l0-.06a.93.93,0,0,1,.23-.43l0,.07a.75.75,0,0,0-.14.41v.06h0a3.1,3.1,0,0,1,1.44-.5c.7,0,1,.45,1,.83,0,1.3-3.06.61-3.06,3.18l.32-.21h0l0-.12a1.41,1.41,0,0,1,.45-.86l0,.1a1.4,1.4,0,0,0-.3.64v.14l.1,0,.21-.06h0l0-.09a1.35,1.35,0,0,1,.52-.81v.09a1.1,1.1,0,0,0-.32.62v.14h.05l.16,0a4.06,4.06,0,0,1,1.06-1.22v.1a4.68,4.68,0,0,0-1,1.24A4.77,4.77,0,0,0,120.64,171.15Zm4.07-.3a2.81,2.81,0,0,0,1.71-.7l-.06-.1a3.93,3.93,0,0,1-1.21.5l.08-.13a5.89,5.89,0,0,0,1.25-.59l-.2-.18,0,0-.05,0a2.09,2.09,0,0,1-.74.35l0-.1a1.83,1.83,0,0,0,.51-.34l.11-.11,0,0a2.62,2.62,0,0,1-.39-.83,6,6,0,0,1-1.3,2.23A1.43,1.43,0,0,0,124.7,170.85Zm6.44-.43a3.14,3.14,0,0,0,1.42-.37,2.29,2.29,0,0,1-2.05-1.84,2.75,2.75,0,0,1-.54.93l0,0,0,.07a1.76,1.76,0,0,0,.69.79l-.11,0a2.19,2.19,0,0,1-.74-.66l0-.07h0a1.3,1.3,0,0,1-.34.2A1.87,1.87,0,0,0,131.14,170.42ZM128,170.1a3,3,0,0,0,1.29-.27l-.13-.17c-1,.46-2.68,0-2.6-1.06h.11c.16,1.28,2.69,1.34,3.52-.35l-.21,0a2.48,2.48,0,0,1-.37.41c-1.21,1-2.39.45-2.58-.19l.1,0a1.19,1.19,0,0,0,1.16.62,1.83,1.83,0,0,0,1.52-.91l-.2,0a1.27,1.27,0,0,1-2.06.21l.1,0c.42.43,1.58.41,1.79-.42a2.68,2.68,0,0,1-.92-1.57h.14c.32,1.78,3,2.15,4.16,1a2.14,2.14,0,0,1-2-1.22c-.21,0-.56,0-.53,0a3,3,0,0,1,.32.79h-.09c-.48-1.12-.9-.82-1.46-1.42l0-.06a2.49,2.49,0,0,0,2.73-.07,3,3,0,0,1-1.59-.7,1.83,1.83,0,0,1-1.91-.36l.08-.08c.82.9,2.59.08,3.16-.65-.78.16-1.64-.52-2-.37a1.58,1.58,0,0,1-1.55-.34l.05-.06a1.78,1.78,0,0,0,2.3-.38c.42-.51.85-1.09.59-1.06a5.25,5.25,0,0,1-1.91.26,1.83,1.83,0,0,1-1.52-.42l.13-.07c.85.56,1.87.23,2.78-.77a3.78,3.78,0,0,1-2.22-.67c-.17-.13-.53,0-.48,0a10.3,10.3,0,0,1,1.23.79l-.12,0c-.56-.41-1.36-.73-1.61-.3l-.08-.11c1.32-1.62-.39-2.53-1.41-2.06a1.21,1.21,0,0,1-.08,1h-.11c-.07-.81-.15-1.27-.45-1.52a1.87,1.87,0,0,0-1.7-.1,2.43,2.43,0,0,1,1.42,1.23l-.09,0c-1.24-1-2.36,0-2.21.47a2.19,2.19,0,0,1,1-.12l0,.06c-1.29.15-1.9,1.18-1.73,1.76l.34-.14a1.39,1.39,0,0,1,.49-1l.09,0a1.19,1.19,0,0,0-.4.9l.34-.18a1,1,0,0,1,1.84-.28h.35a1.65,1.65,0,0,0-.52-.8l.05-.09a2,2,0,0,1,.87,1.14l.15,0a1.85,1.85,0,0,0-.08-.9h.1a1.74,1.74,0,0,1,.27.68l.17-.11c0-.22,0-.41,0-.63h.09a1.42,1.42,0,0,0,.09.47l.27-.15.06.07a2.23,2.23,0,0,0-1.22,2.2c0,1.35.6,2.82-.94,4.32a3.9,3.9,0,0,0,3.36-1.81l.08.18a4.44,4.44,0,0,1-1.88,1.62,4,4,0,0,1-1.53,2.2c1.23.14,2.32-.57,3.23-2.09l.07.23a7.91,7.91,0,0,1-1.67,1.87A2.24,2.24,0,0,0,128,170.1Zm-2.81-2,.15-.29a4.46,4.46,0,0,0,1.88-1.9l0,.18A4.2,4.2,0,0,1,125.2,168.14Zm.08-2.34a6,6,0,0,0,2.1-1.92l.11.11a6.13,6.13,0,0,1-1.83,1.81Zm-3.29-.08h-.2v-.06c1.08,0,1-1.58.13-1.94l0-.08a1.19,1.19,0,0,1,.89,1.21A.93.93,0,0,1,122,165.72Zm8.34-.13a1.47,1.47,0,0,1-1-.45l.08-.08c.47.34.9.49,1.26.26l.18.17A1.46,1.46,0,0,1,130.33,165.59Zm-8.64-.63,0-.16a1.85,1.85,0,0,0-1.07-.4,1.11,1.11,0,0,1,1.28.3v-.1c-1.06-1.16-3,.49-4.18-.62C118.81,165.42,120.21,164,121.69,165Zm7.62-.69h-.07a1.06,1.06,0,0,1-.69-.3l.07-.09a.93.93,0,0,0,1.06.1l.12.18A1.33,1.33,0,0,1,129.31,164.26ZM123,163.07V163a1.12,1.12,0,0,0,.79-1l.07.34A1,1,0,0,1,123,163.07ZM122,163s0,0,0,0l-.11-.73c0-.12-.13-.25-.3-.42s0-.12.12-.1a2.32,2.32,0,0,0,.54,0c.45,0,.68-.56,1-.59l.79,0,0,.08h-.18c-.16,0-.8,0-.68.3.42.77-.05,1.24-.39,1.27a.68.68,0,0,1-.47-.22c-.05-.06-.12-.09-.15,0l-.06.43A.05.05,0,0,1,122,163Zm7-.29a1.06,1.06,0,0,1-.72-.29l.08-.08a1.22,1.22,0,0,0,.89.14l0,.21H129Zm-2.17-2.67-.14-.24c.26-.22.8-.77.54-1.2l.06-.1C127.66,159.07,127.25,159.75,126.88,160.06Z" transform="translate(-25.35 -15.09)"/><path class="cls-2" d="M303.08,71.92H289.24V67.71h32.4v4.21H307.79v35h-4.71Z" transform="translate(-25.35 -15.09)"/><path class="cls-2" d="M330.66,67.71h4.6V84.1h21.82V67.71h4.6v39.21h-4.6V88.31H335.26v18.61h-4.6Z" transform="translate(-25.35 -15.09)"/><path class="cls-2" d="M374.47,67.71H396v3.93H379V84.44h14.68v4H379v14.29h17.22v4.21H374.47Z" transform="translate(-25.35 -15.09)"/><path class="cls-2" d="M434.29,66.44h.44l13.51,31.84,13.57-31.84h.44L470,106.92h-4.6l-5-27-11.91,28.36h-.61L435.84,80l-5.21,26.92h-4.32Z" transform="translate(-25.35 -15.09)"/><path class="cls-2" d="M496.68,66.71h.55l18.28,40.21h-5l-4.37-10H487.54l-4.37,10h-4.82Zm7.75,26.47L496.9,75.91l-7.64,17.28Z" transform="translate(-25.35 -15.09)"/><path class="cls-2" d="M525.31,66.44h.61l26.25,30.68V67.71h4.54v40.48h-.61L529.85,77.51v29.41h-4.54Z" transform="translate(-25.35 -15.09)"/><path class="cls-2" d="M572.78,72.36a18.44,18.44,0,0,1,27.14.06,22.69,22.69,0,0,1,1.72,27.75,18.48,18.48,0,0,1-28.85,2,21.22,21.22,0,0,1-5.65-14.9A21.35,21.35,0,0,1,572.78,72.36Zm13.57,31.51c8.09,0,14.45-6.92,14.45-16.56s-6.37-16.56-14.45-16.56-14.51,7-14.51,16.56S578.26,103.87,586.34,103.87Z" transform="translate(-25.35 -15.09)"/><path class="cls-2" d="M615.7,67.71H624c11.24,0,16.78,4.15,16.78,11.41,0,5.54-3.88,10-10.25,11.08l14.23,16.73H638.9L625.23,90.81H620.3v16.12h-4.6Zm8.58,19.49c7.86,0,11.85-2.88,11.85-8,0-5.59-4.26-7.7-12.63-7.7H620.3V87.21Z" transform="translate(-25.35 -15.09)"/><path class="cls-2" d="M678.12,67.71h4.6V84.1h21.82V67.71h4.6v39.21h-4.6V88.31H682.71v18.61h-4.6Z" transform="translate(-25.35 -15.09)"/><path class="cls-2" d="M726.14,72.36a18.44,18.44,0,0,1,27.14.06A22.69,22.69,0,0,1,755,100.16a18.48,18.48,0,0,1-28.85,2,21.22,21.22,0,0,1-5.65-14.9A21.35,21.35,0,0,1,726.14,72.36Zm13.57,31.51c8.09,0,14.45-6.92,14.45-16.56s-6.37-16.56-14.45-16.56-14.51,7-14.51,16.56S731.62,103.87,739.71,103.87Z" transform="translate(-25.35 -15.09)"/><path class="cls-2" d="M774.27,90.64c0,8.81,3.82,13.24,11,13.24s10.91-4.49,10.91-13.4V67.71h4.21V91.25c0,11-6.09,16.95-15.12,16.95-9.8,0-15.67-5.87-15.67-16.84V67.71h4.65Z" transform="translate(-25.35 -15.09)"/><path class="cls-2" d="M823,104c5,0,8.25-2.88,8.25-7s-2.88-6.09-7.75-8.31l-2.71-1.22C815,84.82,812,81.11,812,76.41c0-5.7,4.54-10,11.35-10a18.19,18.19,0,0,1,9.36,2.66v5c-3.32-2.49-6.42-3.71-9.58-3.71-4.21,0-6.87,2.44-6.87,5.82s2.44,5.54,7.37,7.7l2.77,1.22c6.15,2.71,9.3,6.87,9.3,11.91,0,6.48-5,11.24-12.57,11.24a24.93,24.93,0,0,1-11.19-3l-.39-5.48C815.92,102.44,819.46,104,823,104Z" transform="translate(-25.35 -15.09)"/><path class="cls-2" d="M847.76,67.71h21.54v3.93h-17V84.44H867v4H852.3v14.29h17.22v4.21H847.76Z" transform="translate(-25.35 -15.09)"/><path class="cls-2" d="M326.3,143.48h.29l9.61,21.15h-2.65l-2.3-5.24h-9.76l-2.3,5.24h-2.53Zm4.08,13.92-4-9.09-4,9.09Z" transform="translate(-25.35 -15.09)"/><path class="cls-2" d="M340.68,143.34H341l13.81,16.14V144h2.39V165.3h-.32l-13.81-16.14v15.47h-2.39Z" transform="translate(-25.35 -15.09)"/><path class="cls-2" d="M373.94,144h11.33v2.07h-8.94v6.73H384v2.1h-7.72v7.52h9.06v2.21H373.94Z" transform="translate(-25.35 -15.09)"/><path class="cls-2" d="M398.09,153.94,390.45,144h3l6.18,8,6.29-8h2.8L401,153.82l8.24,10.81h-3l-6.76-8.88-7,8.88H389.7Z" transform="translate(-25.35 -15.09)"/><path class="cls-2" d="M421.59,165.3a9.94,9.94,0,0,1-6.35-2.24,11,11,0,0,1-4-8.74c0-6.35,4.49-11,10.4-11a10.33,10.33,0,0,1,6,2l-.26,2.56a8.65,8.65,0,0,0-5.74-2.3c-4.57,0-8,3.67-8,8.8S417,163,421.62,163a9.57,9.57,0,0,0,6.32-2.62l-.2,2.88A10.35,10.35,0,0,1,421.59,165.3Z" transform="translate(-25.35 -15.09)"/><path class="cls-2" d="M433.15,144h2.45v18.41h9.7v2.21H433.15Z" transform="translate(-25.35 -15.09)"/><path class="cls-2" d="M451.2,156.07c0,4.63,2,7,5.8,7s5.74-2.36,5.74-7V144H465v12.38c0,5.77-3.2,8.91-8,8.91-5.16,0-8.24-3.09-8.24-8.86V144h2.45Z" transform="translate(-25.35 -15.09)"/><path class="cls-2" d="M475.29,163.09c2.65,0,4.34-1.51,4.34-3.67s-1.51-3.2-4.08-4.37l-1.43-.64c-3.06-1.4-4.6-3.35-4.6-5.83,0-3,2.39-5.24,6-5.24a9.56,9.56,0,0,1,4.92,1.4v2.62a8.35,8.35,0,0,0-5-2c-2.21,0-3.61,1.28-3.61,3.06s1.28,2.91,3.87,4l1.46.64c3.23,1.43,4.89,3.61,4.89,6.26,0,3.41-2.65,5.91-6.61,5.91a13.09,13.09,0,0,1-5.88-1.57l-.2-2.88C471.56,162.27,473.42,163.09,475.29,163.09Z" transform="translate(-25.35 -15.09)"/><path class="cls-2" d="M487.34,144h2.45v20.62h-2.45Z" transform="translate(-25.35 -15.09)"/><path class="cls-2" d="M503,165.45,494,144h2.62l6.55,16.11L509.94,144h2.42l-9.06,21.44Z" transform="translate(-25.35 -15.09)"/><path class="cls-2" d="M516.23,144h11.33v2.07h-8.94v6.73h7.72v2.1h-7.72v7.52h9.06v2.21H516.23Z" transform="translate(-25.35 -15.09)"/><path class="cls-2" d="M543.49,144h2.42v8.62h11.48V144h2.42v20.62h-2.42v-9.79H545.91v9.79h-2.42Z" transform="translate(-25.35 -15.09)"/><path class="cls-2" d="M567,146.46a9.7,9.7,0,0,1,14.27,0,11.93,11.93,0,0,1,.9,14.59A9.72,9.72,0,0,1,567,162.16a11.85,11.85,0,0,1,0-15.7ZM574.19,163c4.25,0,7.6-3.64,7.6-8.71s-3.35-8.71-7.6-8.71-7.63,3.67-7.63,8.71S569.93,163,574.19,163Z" transform="translate(-25.35 -15.09)"/><path class="cls-2" d="M593.23,146.22h-7.28V144h17v2.21h-7.28v18.41h-2.48Z" transform="translate(-25.35 -15.09)"/><path class="cls-2" d="M607.35,144h11.33v2.07h-8.94v6.73h7.72v2.1h-7.72v7.52h9.06v2.21H607.35Z" transform="translate(-25.35 -15.09)"/><path class="cls-2" d="M624.27,144h2.45v18.41h9.7v2.21H624.27Z" transform="translate(-25.35 -15.09)"/><path class="cls-2" d="M688.84,165.33c-6.23,0-10.66-4.63-10.66-11s4.52-11,10.78-11a13,13,0,0,1,6.64,1.78l-.15,2.62a11.62,11.62,0,0,0-6.5-2.3c-4.72,0-8.3,3.7-8.3,8.94,0,5.07,3.26,8.71,8.13,8.71a11.76,11.76,0,0,0,5.27-1.37v-5.3h-6.2v-2.13h8.65v9A17.34,17.34,0,0,1,688.84,165.33Z" transform="translate(-25.35 -15.09)"/><path class="cls-2" d="M703.89,146.46a9.7,9.7,0,0,1,14.27,0,11.94,11.94,0,0,1,.9,14.59,9.72,9.72,0,0,1-15.17,1.08,11.85,11.85,0,0,1,0-15.7ZM711,163c4.25,0,7.6-3.64,7.6-8.71s-3.35-8.71-7.6-8.71-7.63,3.67-7.63,8.71S706.78,163,711,163Z" transform="translate(-25.35 -15.09)"/><path class="cls-2" d="M726.58,144H729v18.41h9.7v2.21H726.58Z" transform="translate(-25.35 -15.09)"/><path class="cls-2" d="M743,144h11.48v2.16h-9.06v7.14h8.21v2.16h-8.21v9.18H743Z" transform="translate(-25.35 -15.09)"/><path class="cls-2" d="M778.56,165.3a9.94,9.94,0,0,1-6.35-2.24,11,11,0,0,1-4-8.74c0-6.35,4.48-11,10.4-11a10.33,10.33,0,0,1,6,2l-.26,2.56a8.65,8.65,0,0,0-5.74-2.3c-4.57,0-8,3.67-8,8.8S774,163,778.59,163a9.58,9.58,0,0,0,6.32-2.62l-.21,2.88A10.34,10.34,0,0,1,778.56,165.3Z" transform="translate(-25.35 -15.09)"/><path class="cls-2" d="M790.12,144h2.45v18.41h9.7v2.21H790.12Z" transform="translate(-25.35 -15.09)"/><path class="cls-2" d="M808.76,156.07c0,4.63,2,7,5.8,7s5.74-2.36,5.74-7V144h2.21v12.38c0,5.77-3.2,8.91-8,8.91-5.16,0-8.24-3.09-8.24-8.86V144h2.45Z" transform="translate(-25.35 -15.09)"/><path class="cls-2" d="M829.23,144h5.3c4.66,0,7,1.86,7,4.84,0,2.33-1.34,3.87-3.73,4.63,2.82.76,4.25,2.56,4.25,5.3,0,3.64-2.88,5.86-8.65,5.86h-4.22Zm5.07,8.65c3.12,0,4.89-1.4,4.89-3.52s-1.69-3.18-5.07-3.18h-2.51v6.7Zm-.26,10c3.58,0,5.59-1.51,5.59-4.08s-2-3.93-5.62-3.93h-2.39v8Z" transform="translate(-25.35 -15.09)"/><path class="cls-2" d="M662.28,159.25a11.61,11.61,0,0,0,2-3.49l1.91.78a14.33,14.33,0,0,1-2.51,4.36l3.26,3.73h-2.86l-1.93-2.16a11.59,11.59,0,0,1-7.2,2.83c-3.84,0-6.5-2.4-6.5-5.72,0-2.68,1.62-5,4.88-7-1.62-1.82-2.51-3.35-2.51-4.85a4.31,4.31,0,0,1,4.63-4.22,4.53,4.53,0,0,1,4.76,4.45c0,1.82-1.19,3.39-3.59,4.94l-1.81,1.36c-2.66,1.71-4,3.26-4,5.11a4,4,0,0,0,4.25,3.84,8.55,8.55,0,0,0,5.6-2.31Zm-4.2-11.64a2.4,2.4,0,0,0-2.59-2.35,2.29,2.29,0,0,0-2.4,2.35c0,.87.7,2.16,2.17,3.64C657.13,149.95,658.08,148.88,658.08,147.61Z" transform="translate(-25.35 -15.09)"/><rect class="cls-2" x="263.89" y="184.82" width="580.47" height="3.41"/></svg>